<svg width="40" height="40" viewBox="0 0 40 40" fill="none" xmlns="http://www.w3.org/2000/svg">
<g id="Group 1854">
<circle id="Ellipse 3.7" cx="20" cy="20" r="19.75" fill="white" stroke="#E0E0E0" stroke-width="0.5"/>
<path id="Vector" d="M28.5379 24.5284C27.9256 23.916 26.4553 22.9955 25.7305 22.6497C24.8892 22.2457 24.581 22.254 23.9853 22.683C23.4897 23.0413 23.169 23.3745 22.5983 23.2495C22.0277 23.1287 20.9031 22.2748 19.8118 21.1876C18.7206 20.0963 17.8709 18.9716 17.7501 18.4009C17.6293 17.8261 17.9625 17.5095 18.3165 17.0138C18.7456 16.4181 18.758 16.1099 18.3499 15.2684C18.0042 14.5395 17.0878 13.0732 16.4714 12.4609C15.8591 11.8486 15.7216 11.9819 15.3843 12.1027C15.3843 12.1027 14.8844 12.3026 14.3888 12.6317C13.7765 13.0399 13.435 13.3815 13.1934 13.8938C12.956 14.4062 12.6811 15.3601 14.0806 17.8511C15.2093 19.863 16.3173 21.3876 17.9625 23.0288C17.9625 23.0288 17.9625 23.0288 17.9667 23.0329C17.9667 23.0329 17.9667 23.0329 17.9708 23.0371C19.6161 24.6825 21.1364 25.7905 23.1481 26.9194C25.6389 28.319 26.5927 28.044 27.1051 27.8066C27.6174 27.5692 27.9589 27.2276 28.3671 26.6111C28.6961 26.1154 28.8961 25.6156 28.8961 25.6156C29.0169 25.2781 29.1543 25.1407 28.5379 24.5284Z" fill="#3FC25C"/>
</g>
</svg>
