<svg width="18" height="19" viewBox="0 0 18 19" fill="none" xmlns="http://www.w3.org/2000/svg">
<g id="carbon:password">
<path id="Vector" d="M11.8125 1.1875C11.022 1.18731 10.2424 1.38259 9.5362 1.75768C8.83003 2.13278 8.21692 2.67727 7.746 3.34751C7.27507 4.01776 6.95944 4.79512 6.82438 5.61731C6.68932 6.4395 6.73859 7.28366 6.96825 8.08213L1.125 14.25V17.8125H4.5L10.3433 11.6446C11.0396 11.8677 11.7733 11.9298 12.4944 11.8265C13.2154 11.7232 13.907 11.457 14.5218 11.0462C15.1366 10.6353 15.6603 10.0893 16.0571 9.44544C16.454 8.80159 16.7146 8.075 16.8214 7.3152C16.9282 6.55539 16.8785 5.78022 16.6757 5.04251C16.473 4.3048 16.122 3.62189 15.6466 3.04033C15.1712 2.45877 14.5827 1.99222 13.921 1.67248C13.2594 1.35274 12.5402 1.18732 11.8125 1.1875ZM11.8125 10.6875C11.4252 10.6873 11.0401 10.6269 10.6695 10.5082L10.0243 10.3016L9.54788 10.8045L7.75856 12.6932L6.98287 11.875L6.1875 12.7146L6.96319 13.5333L6.07106 14.475L5.29537 13.6562L4.5 14.4958L5.27569 15.3146L4.03425 16.625H2.25V14.7416L7.76363 8.92169L8.24062 8.41878L8.04488 7.73775C7.80445 6.90115 7.82007 6.00583 8.08951 5.17914C8.35895 4.35245 8.86849 3.6365 9.54565 3.13312C10.2228 2.62973 11.0331 2.36456 11.8613 2.37531C12.6894 2.38607 13.4933 2.67221 14.1585 3.19302C14.8237 3.71384 15.3164 4.44281 15.5665 5.27624C15.8166 6.10968 15.8114 7.00513 15.5515 7.83523C15.2917 8.66534 14.7905 9.38781 14.1192 9.89989C13.4479 10.412 12.6407 10.6876 11.8125 10.6875Z" fill="white"/>
<path id="Vector_2" d="M12.375 7.125C12.9963 7.125 13.5 6.59334 13.5 5.9375C13.5 5.28166 12.9963 4.75 12.375 4.75C11.7537 4.75 11.25 5.28166 11.25 5.9375C11.25 6.59334 11.7537 7.125 12.375 7.125Z" fill="white"/>
</g>
</svg>
