<svg width="40" height="40" viewBox="0 0 40 40" fill="none" xmlns="http://www.w3.org/2000/svg">
<g id="Group 128">
<circle id="Ellipse 3.6" cx="20" cy="20" r="20" fill="#2F80ED"/>
<g id="Group 2">
<path id="Vector" d="M27.8482 12H27.3875L27.2435 12.0864H27.1859L27.042 12.2016H27.0132C26.754 12.4607 26.6388 12.8063 26.6964 13.1518V13.7277H29V13.1518C29 12.5183 28.4817 12 27.8482 12ZM19.7857 25.2456H11.7231V25.8215C11.7231 27.0885 12.7598 28.1251 14.0267 28.1251H20.6783C20.1024 27.4916 19.7857 26.6853 19.7857 25.8215V25.2456Z" fill="white"/>
<path id="Vector_2" d="M15.7544 13.1522V24.0942H20.9375V25.8219C20.9375 27.0888 21.9741 28.1254 23.241 28.1254C24.508 28.1254 25.5446 27.0888 25.5446 25.8219V12.4899L25.6022 12.3459L25.6598 12.1731L25.7462 12.0292H16.9062C16.2727 12.0292 15.7832 12.5187 15.7544 13.1522Z" fill="white"/>
<path id="Vector_3" d="M18.374 14.9662H21.8294C22.1461 14.9662 22.4053 15.2253 22.4053 15.5421C22.4053 15.8588 22.1461 16.118 21.8294 16.118H18.374C18.0572 16.118 17.7981 15.8588 17.7981 15.5421C17.7981 15.2253 18.0572 14.9662 18.374 14.9662Z" fill="#3FC25C"/>
<path id="Vector_4" d="M18.374 17.6439H22.9812C23.2979 17.6439 23.557 17.9031 23.557 18.2198C23.557 18.5366 23.2979 18.7957 22.9812 18.7957H18.374C18.0572 18.7957 17.7981 18.5366 17.7981 18.2198C17.7981 17.9031 18.0572 17.6439 18.374 17.6439Z" fill="#3FC25C"/>
<path id="Vector_5" d="M18.374 20.2925H21.8294C22.1461 20.2925 22.4053 20.5517 22.4053 20.8684C22.4053 21.1852 22.1461 21.4443 21.8294 21.4443H18.374C18.0572 21.4443 17.7981 21.1852 17.7981 20.8684C17.7981 20.5517 18.0572 20.2925 18.374 20.2925Z" fill="#3FC25C"/>
</g>
</g>
</svg>
