<svg width="40" height="40" viewBox="0 0 40 40" fill="none" xmlns="http://www.w3.org/2000/svg">
<circle cx="20" cy="20" r="20" fill="#2F80ED"/>
<g clip-path="url(#clip0_4_1831)">
<path d="M23.6249 21.2084C23.2332 21.2084 22.9166 21.5258 22.9166 21.9167V24.7501C22.9166 25.1404 22.5992 25.4584 22.2082 25.4584H20.0832V14.8335C20.0832 14.2286 19.6979 13.6881 19.1185 13.487L18.9088 13.4168H22.2082C22.5992 13.4168 22.9166 13.7348 22.9166 14.1252V16.2502C22.9166 16.6411 23.2332 16.9585 23.6249 16.9585C24.0166 16.9585 24.3332 16.6411 24.3332 16.2502V14.1252C24.3332 12.9537 23.3798 12.0002 22.2082 12.0002H14.5937C14.5668 12.0002 14.5442 12.0123 14.518 12.0158C14.4839 12.013 14.4513 12.0002 14.4167 12.0002C13.6354 12.0002 13 12.6355 13 13.4168V26.1667C13 26.7716 13.3853 27.3121 13.9647 27.5132L18.2275 28.9342C18.372 28.9788 18.5157 29.0001 18.6667 29.0001C19.448 29.0001 20.0832 28.3647 20.0832 27.5834V26.8751H22.2082C23.3798 26.8751 24.3332 25.9217 24.3332 24.7501V21.9167C24.3332 21.5258 24.0166 21.2084 23.6249 21.2084Z" fill="white"/>
<path d="M29.7926 18.5825L26.9592 15.7492C26.7568 15.5466 26.4521 15.4857 26.1873 15.5954C25.9231 15.7053 25.7502 15.9638 25.7502 16.25V18.375H22.9169C22.5259 18.375 22.2085 18.6922 22.2085 19.0833C22.2085 19.4743 22.5259 19.7915 22.9169 19.7915H25.7502V21.9165C25.7502 22.2028 25.9231 22.4613 26.1873 22.5711C26.4521 22.6808 26.7568 22.6199 26.9592 22.4174L29.7926 19.584C30.0695 19.3071 30.0695 18.8594 29.7926 18.5825Z" fill="white"/>
</g>
<defs>
<clipPath id="clip0_4_1831">
<rect width="17" height="17" fill="white" transform="translate(13 12)"/>
</clipPath>
</defs>
</svg>
