<svg width="77" height="77" viewBox="0 0 77 77" fill="none" xmlns="http://www.w3.org/2000/svg">
<path d="M12.8333 12.8333H32.0833V32.0833H12.8333V12.8333ZM64.1667 12.8333V32.0833H44.9167V12.8333H64.1667ZM44.9167 48.125H51.3333V41.7083H44.9167V35.2917H51.3333V41.7083H57.75V35.2917H64.1667V41.7083H57.75V48.125H64.1667V57.75H57.75V64.1667H51.3333V57.75H41.7083V64.1667H35.2917V51.3333H44.9167V48.125ZM51.3333 48.125V57.75H57.75V48.125H51.3333ZM12.8333 64.1667V44.9167H32.0833V64.1667H12.8333ZM19.25 19.25V25.6667H25.6667V19.25H19.25ZM51.3333 19.25V25.6667H57.75V19.25H51.3333ZM19.25 51.3333V57.75H25.6667V51.3333H19.25ZM12.8333 35.2917H19.25V41.7083H12.8333V35.2917ZM28.875 35.2917H41.7083V48.125H35.2917V41.7083H28.875V35.2917ZM35.2917 19.25H41.7083V32.0833H35.2917V19.25ZM6.41667 6.41667V19.25H0V6.41667C0 4.71486 0.67604 3.08276 1.8794 1.8794C3.08276 0.67604 4.71486 0 6.41667 0L19.25 0V6.41667H6.41667ZM70.5833 0C72.2851 0 73.9172 0.67604 75.1206 1.8794C76.324 3.08276 77 4.71486 77 6.41667V19.25H70.5833V6.41667H57.75V0H70.5833ZM6.41667 57.75V70.5833H19.25V77H6.41667C4.71486 77 3.08276 76.324 1.8794 75.1206C0.67604 73.9172 0 72.2851 0 70.5833V57.75H6.41667ZM70.5833 70.5833V57.75H77V70.5833C77 72.2851 76.324 73.9172 75.1206 75.1206C73.9172 76.324 72.2851 77 70.5833 77H57.75V70.5833H70.5833Z" fill="#595C7D"/>
</svg>
