<svg width="227" height="50" viewBox="0 0 227 50" fill="none" xmlns="http://www.w3.org/2000/svg">
<path d="M20.2369 18.9603C18.5574 18.412 16.8028 18.1177 15.0333 18.0875C13.5367 18.0875 12.3463 18.3449 11.4621 18.8597C10.5779 19.3745 10.1357 20.169 10.1355 21.2431C10.1355 22.3623 10.6911 23.2238 11.8022 23.8277C12.9133 24.4316 14.6705 25.0694 17.0739 25.7411C19.2078 26.3553 21.2983 27.1066 23.332 27.9901C24.9893 28.7484 26.4448 29.8748 27.5834 31.2803C28.7845 32.7354 29.3853 34.6488 29.386 37.0206C29.386 40.5119 28.0255 43.1973 25.3047 45.0769C22.5838 46.9566 19.16 47.8965 15.0333 47.8966C12.2358 47.899 9.45635 47.4569 6.8024 46.5875C4.12604 45.7149 1.85852 44.4729 0 42.8615L3.06111 36.7521C4.7841 38.1911 6.76917 39.2959 8.91109 40.008C10.9819 40.7565 13.167 41.1538 15.3733 41.1829C17.0059 41.1829 18.3098 40.9032 19.2848 40.3438C19.7443 40.1012 20.125 39.7365 20.3836 39.2913C20.6422 38.8461 20.7682 38.3384 20.7472 37.8262C20.7472 36.5737 20.1803 35.6338 19.0465 35.0066C17.9126 34.3793 16.0761 33.6856 13.5368 32.9254C11.4947 32.3553 9.49459 31.6487 7.55053 30.8106C5.97441 30.0905 4.59787 29.0082 3.53718 27.6551C2.40298 26.2452 1.83611 24.399 1.83663 22.1164C1.83663 18.5813 3.14042 15.8846 5.74802 14.0264C8.35561 12.1682 11.6321 11.2395 15.5775 11.2402C17.9838 11.241 20.3775 11.5804 22.6858 12.2482C24.8975 12.8631 26.9977 13.8145 28.9099 15.0678L25.7128 21.3787C23.9881 20.3686 22.1507 19.5571 20.2369 18.9603Z" fill="#079D49"/>
<path d="M63.844 15.0333C66.247 17.5174 67.4486 20.8854 67.449 25.1373V47.561H58.5382V27.6886C58.5382 25.1827 57.8125 23.2022 56.3612 21.747C54.9099 20.2919 52.9372 19.5646 50.4433 19.5652C47.4949 19.6102 45.1596 20.5948 43.4375 22.5191C41.7154 24.4433 40.8538 26.905 40.8527 29.9041V47.561H32.0085V0H40.8527V18.4909C43.3462 13.7915 47.7223 11.397 53.9811 11.3075C58.1526 11.3075 61.4402 12.5494 63.844 15.0333Z" fill="#079D49"/>
<path d="M149.306 14.9692C151.71 17.4425 152.911 20.796 152.912 25.0299V47.3573H144V27.5701C144 25.0747 143.274 23.1026 141.823 21.6539C140.372 20.2053 138.399 19.4811 135.905 19.4815C132.957 19.5264 130.621 20.5068 128.899 22.4227C127.177 24.3386 126.316 26.7897 126.314 29.7761V47.3569H117.471V0.00146484H126.314V18.4129C128.808 13.7336 133.184 11.3494 139.443 11.2603C143.614 11.2597 146.902 12.496 149.306 14.9692Z" fill="#079D49"/>
<path d="M184.644 13.5981C187.461 15.0537 189.797 17.2682 191.379 19.9819C192.988 22.7227 193.793 25.8758 193.794 29.4409C193.794 33.0507 192.989 36.237 191.379 39C189.806 41.7287 187.468 43.9562 184.644 45.4176C181.764 46.9329 178.442 47.6904 174.679 47.6902C170.87 47.6902 167.514 46.9327 164.611 45.4176C161.773 43.9642 159.423 41.7356 157.843 39C156.233 36.2374 155.428 33.0511 155.428 29.4409C155.428 25.8759 156.233 22.7228 157.843 19.9819C159.431 17.2614 161.78 15.0458 164.611 13.5981C167.513 12.0835 170.869 11.3258 174.679 11.3252C178.443 11.3252 181.764 12.0829 184.644 13.5981ZM167.196 21.7533C165.292 23.7587 164.339 26.3658 164.339 29.5745C164.339 32.7833 165.292 35.3903 167.196 37.3956C169.101 39.401 171.595 40.4037 174.679 40.4037C177.672 40.4037 180.121 39.401 182.025 37.3956C183.93 35.3902 184.882 32.7832 184.882 29.5745C184.882 26.3659 183.93 23.7588 182.025 21.7533C180.121 19.7478 177.672 18.7451 174.679 18.7452C171.594 18.7452 169.1 19.7478 167.196 21.7529V21.7533Z" fill="#079D49"/>
<path d="M195.35 11.6602H225.688V17.409L205.69 40.2706L226.233 40.3376V47.4234L194.67 47.3566V41.6076L214.669 18.7458L195.35 18.679V11.6602Z" fill="#079D49"/>
<path fill-rule="evenodd" clip-rule="evenodd" d="M107.466 12.1574C107.195 11.9571 107.024 11.5044 106.808 11.3347C102.191 7.68894 96.0956 6.01868 88.5639 7.58978C88.1052 8.03708 86.8428 8.4281 85.9084 8.54069C85.7844 8.49942 85.736 8.47302 85.7376 8.32525C85.7376 8.30185 85.7395 8.27825 85.7407 8.25486C86.3377 7.86004 87.1984 7.57501 87.3296 7.34926C89.086 6.67069 90.9737 6.3738 92.8594 6.26426C94.0515 6.19503 95.2464 6.1944 96.4397 6.20315C96.8763 6.20638 97.3149 6.20449 97.7518 6.21875C98.929 6.40145 100.096 6.64271 101.248 6.9415C102.689 7.37329 104.08 7.94863 105.401 8.65862C105.445 8.66825 105.486 8.68874 105.52 8.71815L105.533 8.72465C105.57 8.7465 105.609 8.76491 105.65 8.77962C108.507 10.0458 110.814 12.2675 112.161 15.049C113.041 15.3649 113.227 16.8618 114.063 17.2528C113.855 16.0581 113.397 14.9189 112.719 13.9071C110.433 10.612 105.501 6.79541 102.066 5.60772C100.588 5.09594 98.44 4.38901 97.0926 4.35249C96.5393 4.3369 96.1179 4.74521 96.0387 4.20224C95.5731 4.28079 94.9162 4.68614 94.8497 4.08821C94.966 4.03499 95.09 4.00009 95.2174 3.98476C95.3141 3.99408 95.4125 4.00374 95.5108 4.0142C95.5605 4.02306 95.6118 4.01246 95.6536 3.98467C95.6955 3.95688 95.7247 3.91406 95.7349 3.86543C95.7776 3.85155 95.8153 3.82596 95.8436 3.7916C95.8719 3.75725 95.8894 3.71564 95.8943 3.67172C95.8076 3.61528 95.7094 3.57805 95.6066 3.5627C95.5766 3.54693 95.5437 3.53714 95.5098 3.53382C95.3033 3.51195 95.0991 3.49389 94.8959 3.47791C94.8691 3.48046 94.8421 3.48046 94.8154 3.47791C94.7846 3.4743 94.7541 3.4703 94.7235 3.46631L94.5638 3.4547C94.5478 3.4566 94.5317 3.45831 94.5154 3.45888C94.3651 3.46534 94.217 3.4334 94.0669 3.43093C94.0449 3.43047 94.0228 3.4289 94.001 3.42619C93.5654 3.4106 93.1288 3.40945 92.6814 3.42619C91.7004 3.46309 90.6993 3.44729 89.7357 3.65268C89.7288 3.65446 89.7218 3.65656 89.7151 3.65909C87.2411 3.88864 84.9813 5.09408 82.9756 6.21578C80.965 7.11668 78.8921 7.9536 77.2471 9.44387C76.5925 10.0073 76.0395 10.6756 75.6117 11.4203C72.3653 15.5742 70.312 20.4062 70.0405 26.2507C70.1638 29.6378 70.8738 33.6347 72.5234 36.9791C76.416 44.5352 83.4327 48.9445 91.0875 49.8868C92.0561 49.9986 93.0328 50.0277 94.0065 49.9737C96.9063 49.7645 101.301 49.4063 103.221 47.1278C104.645 46.4771 105.944 45.7558 106.436 44.5763C106.098 44.7628 106.1 44.3702 105.922 44.2851C106.086 43.2053 107.935 42.5246 107.641 41.5568C107.08 41.6296 105.531 42.6539 104.912 42.7007C104.789 42.0176 105.51 41.921 105.299 41.46C104.893 41.4398 104.106 42.0649 104.011 41.5138C104.637 40.9719 104.956 40.2558 105.37 39.593C101.782 40.6919 96.4031 43.3789 92.3266 42.7338C91.9211 42.8399 91.516 42.9462 91.1111 43.0526C86.2923 41.9912 82.4695 39.2326 79.7107 34.6655C79.5356 34.1551 79.4638 33.769 79.2254 33.2237C78.6909 32.8451 79.61 32.3586 78.8893 32.1788C76.9485 24.826 78.6012 19.3796 82.1972 15.1749C83.7465 13.7065 85.5745 12.5519 87.5772 11.7769C91.4705 10.273 95.7288 9.93184 99.8185 10.7961C104.084 12.4486 106.806 14.5851 109.143 18.647C109.136 18.7 109.149 18.7537 109.179 18.7982C109.678 19.5846 110.21 20.3615 110.527 21.2406C110.537 21.2702 110.553 21.2976 110.574 21.3212C110.595 21.3447 110.621 21.3639 110.649 21.3776C110.682 21.4358 110.735 21.4805 110.798 21.5037C110.861 21.5269 110.931 21.5271 110.995 21.5041C111.325 21.4157 111.312 21.0043 111.284 20.7363C111.185 19.8105 110.6 18.8433 110.158 18.0367C110.021 17.7868 109.876 17.5417 109.724 17.3013C109.71 17.242 109.696 17.1826 109.682 17.1231C109.583 16.9985 109.477 16.879 109.365 16.7652C109.11 16.4042 108.833 16.0587 108.535 15.7306C108.461 15.595 108.424 15.4428 108.428 15.2888C108.498 15.244 108.581 15.2215 108.665 15.2247C108.746 15.2529 108.822 15.2907 108.893 15.3371C109.465 15.9457 109.871 16.8367 110.416 17.4915C110.629 17.9191 110.843 18.3466 111.056 18.7742C111.06 18.8832 111.087 18.9901 111.136 19.0879C111.185 19.1858 111.254 19.2724 111.339 19.342C111.399 19.4621 111.459 19.582 111.519 19.7019C111.953 20.573 112.398 21.4454 112.62 22.3969C112.81 23.2995 112.92 24.2165 112.949 25.1377C112.958 25.315 112.957 25.4911 112.949 25.6669C112.973 25.7331 112.985 25.8029 112.984 25.8732C112.986 26.6132 112.942 27.3527 112.851 28.0873C112.888 28.126 112.936 28.1528 112.988 28.1642C113.041 28.1756 113.096 28.1711 113.146 28.1512C113.211 28.2703 113.282 28.3969 113.363 28.5316C113.607 27.6238 113.438 26.4802 113.722 25.5932C113.543 22.0463 112.19 17.9299 110.645 15.875C109.499 14.3419 108.686 13.0518 107.466 12.1574ZM86.1653 5.57215C86.2958 5.52375 86.4225 5.46621 86.5446 5.39989C87.0694 5.20648 87.5331 4.88164 88.0799 4.73825C88.2699 4.68842 88.4615 4.64314 88.6538 4.60016C89.1202 4.50035 89.5919 4.42643 90.0667 4.37877C90.1108 4.37468 90.153 4.35923 90.1891 4.33392C90.8713 4.19471 93.6522 3.6696 94.7148 4.1247C91.359 4.7485 90.676 4.64203 90.0409 4.71772C89.8208 4.75576 89.6511 4.78877 89.7045 4.77641C88.8215 4.98143 87.9434 5.44984 87.2051 5.48997C87.0774 5.49738 86.6633 5.74824 86.3977 5.85037C85.857 6.05729 84.8539 6.2534 84.2031 6.45899C84.1057 5.76786 85.3637 5.77412 86.1653 5.57215Z" fill="black"/>
<path fill-rule="evenodd" clip-rule="evenodd" d="M112.998 28.7716C112.759 28.7699 112.974 29.5585 113.18 29.4407C113.372 29.3732 113.542 28.5608 112.998 28.7716Z" fill="#231F20"/>
<path fill-rule="evenodd" clip-rule="evenodd" d="M114.173 17.6516C114.354 17.9266 114.212 18.7512 114.696 18.5095C114.97 18.2178 114.554 17.472 114.173 17.6516Z" fill="#231F20"/>
<path fill-rule="evenodd" clip-rule="evenodd" d="M113.193 29.8686C113.198 29.8133 113.184 29.758 113.155 29.7106C113.126 29.6632 113.082 29.626 113.03 29.6042C112.993 29.5906 112.954 29.5854 112.915 29.589C112.876 29.5927 112.838 29.6052 112.805 29.6254C112.771 29.6457 112.743 29.6732 112.722 29.7059C112.702 29.7386 112.689 29.7755 112.685 29.8138C112.684 29.8322 112.688 29.8505 112.695 29.8673C112.693 29.8859 112.695 29.9049 112.702 29.9224C112.73 29.9932 112.758 30.0641 112.786 30.1348C112.792 30.1504 112.801 30.1652 112.811 30.1787C112.847 30.2745 112.897 30.3473 112.992 30.3444C112.992 30.2444 113.071 30.1885 113.135 30.1239C113.143 30.1171 113.15 30.1096 113.156 30.1014C113.186 30.0711 113.205 30.0325 113.212 29.9908C113.219 29.9492 113.212 29.9065 113.193 29.8686Z" fill="#231F20"/>
<path fill-rule="evenodd" clip-rule="evenodd" d="M112.671 32.5143C112.666 32.3432 112.516 32.0935 112.314 32.153C112.291 32.1589 112.271 32.1702 112.254 32.186C112.237 32.2018 112.225 32.2216 112.218 32.2434C112.214 32.2458 112.209 32.2481 112.204 32.2514C112.207 32.2666 112.208 32.2805 112.21 32.2949C112.209 32.3123 112.211 32.3297 112.215 32.3465C112.227 32.7339 111.774 32.8599 111.916 33.323C112.01 33.3413 112.108 33.3243 112.19 33.2754C112.285 33.2357 112.315 33.1459 112.361 33.0491C112.39 32.9929 112.426 32.9406 112.468 32.8934C112.528 32.8483 112.577 32.791 112.612 32.7256C112.647 32.6602 112.667 32.5881 112.671 32.5143Z" fill="#231F20"/>
<path fill-rule="evenodd" clip-rule="evenodd" d="M112.62 30.5771C112.845 31.1226 112.07 31.6803 112.575 32.0122C112.628 31.6584 113.414 30.6791 112.62 30.5771Z" fill="#231F20"/>
<path d="M96.7151 30.4977L96.7118 30.4917C96.6731 30.5131 96.6333 30.5335 96.5935 30.5549C96.6025 30.554 96.6113 30.5527 96.6201 30.5509C96.6343 30.5488 96.6486 30.5446 96.6629 30.5416L96.6854 30.5355C96.7083 30.5282 96.7308 30.5197 96.7529 30.51C96.7479 30.5053 96.7418 30.5018 96.7353 30.4997C96.7288 30.4976 96.7219 30.4969 96.7151 30.4977Z" fill="#0B9949"/>
<path d="M92.6589 22.2908C92.471 22.3838 92.2895 22.4887 92.1154 22.6047C92.0302 22.6618 91.9472 22.721 91.8671 22.7826C91.8671 22.7854 91.8671 22.7883 91.8671 22.7913C91.8572 22.7999 91.8477 22.8084 91.8357 22.8181C91.8394 22.8254 91.8407 22.8337 91.8395 22.8417C91.8383 22.8498 91.8346 22.8572 91.829 22.8632C91.6774 23.0199 91.5269 23.1755 91.3812 23.337C91.287 23.4512 91.2075 23.5764 91.1444 23.7097C91.1446 23.7098 91.1447 23.7099 91.1448 23.7101C91.1449 23.7103 91.1449 23.7105 91.1449 23.7106C91.1449 23.7108 91.1449 23.711 91.1448 23.7112C91.1447 23.7114 91.1446 23.7115 91.1444 23.7116V23.7126H91.1435C91.1377 23.7242 91.1318 23.7346 91.126 23.7453C91.1196 23.7607 91.1124 23.7757 91.1044 23.7903C91.1034 23.7903 91.1024 23.7903 91.1005 23.7903L91.0996 23.7912C91.104 23.7989 91.106 23.8077 91.1053 23.8164C91.1046 23.8252 91.1013 23.8335 91.0957 23.8404C91.0763 23.8643 91.0585 23.8892 91.0409 23.9143C91.038 23.92 91.037 23.9248 91.0341 23.9307C91.036 23.9336 91.036 23.9345 91.0322 23.9345C91.0003 23.9976 90.9614 24.0568 90.916 24.1113L90.9025 24.1351C90.9001 24.1375 90.897 24.1392 90.8936 24.14C90.8931 24.1411 90.8924 24.142 90.8917 24.1429C90.8962 24.1537 90.8962 24.1658 90.8917 24.1766C90.8667 24.24 90.8367 24.3014 90.8019 24.3601C90.7783 24.4023 90.7725 24.4225 90.7578 24.4514C90.758 24.458 90.7567 24.4645 90.7539 24.4704C90.7345 24.5193 90.7152 24.5693 90.6959 24.6174C90.6959 24.6327 90.6919 24.6471 90.683 24.6499C90.6811 24.6558 90.6782 24.6616 90.6763 24.6673C90.6767 24.6689 90.6766 24.6705 90.6761 24.672C90.6756 24.6736 90.6747 24.675 90.6734 24.676C90.6478 24.7365 90.6244 24.797 90.601 24.8577C90.5714 24.9471 90.5505 25.039 90.5385 25.1323C90.5027 25.2438 90.4778 25.3584 90.4642 25.4746C90.4601 25.4957 90.4448 25.5187 90.4386 25.5408C90.4261 25.5946 90.4172 25.6739 90.4094 25.7233C90.4105 25.7241 90.4112 25.7252 90.4117 25.7264C90.4122 25.7276 90.4124 25.7289 90.4123 25.7302C90.4123 25.7342 90.4094 25.7371 90.4084 25.7371C90.4053 25.7582 90.4015 25.7792 90.3995 25.8003C90.3971 25.8302 90.3991 25.8604 90.4054 25.8898C90.4005 25.8802 90.3976 25.8791 90.3966 25.8841V25.8966C90.3985 25.9137 90.4034 25.9388 90.3986 25.9367H90.3976V25.9464C90.3993 25.9526 90.3999 25.959 90.3995 25.9654V25.9692C90.3995 25.9692 90.3995 25.9714 90.3995 25.9721C90.3995 25.9847 90.3995 25.9972 90.3995 26.0086C90.4 26.0108 90.4 26.0131 90.3995 26.0153C90.4 26.0221 90.4 26.0289 90.3995 26.0356C90.3994 26.0373 90.3997 26.0389 90.4004 26.0404C90.4011 26.0419 90.4021 26.0432 90.4034 26.0442C90.4034 26.047 90.4005 26.0508 90.3995 26.0538C90.3995 26.0932 90.3996 26.1336 90.4025 26.1739C90.4062 26.18 90.4083 26.1869 90.4084 26.1941C90.4094 26.2104 90.4113 26.2277 90.4123 26.245C90.4124 26.2449 90.4126 26.2448 90.4128 26.2448C90.4129 26.2447 90.413 26.2446 90.4132 26.2446C90.4134 26.2446 90.4136 26.2447 90.4138 26.2448C90.414 26.2448 90.4141 26.2449 90.4143 26.245C90.4123 26.2469 90.4133 26.2488 90.4123 26.2518C90.4562 26.7179 90.558 27.177 90.7153 27.6188C90.7187 27.6221 90.7214 27.6261 90.7231 27.6305C90.7515 27.712 90.7798 27.789 90.8112 27.8648C90.815 27.8734 90.8189 27.8812 90.823 27.8897V27.8928C90.8483 27.9498 90.8756 28.0068 90.906 28.0616C90.9157 28.0654 90.9238 28.072 90.9294 28.0807C90.9636 28.1449 90.9999 28.2085 91.0361 28.2708C91.0446 28.2748 91.0514 28.2815 91.0554 28.2899C91.1508 28.4724 91.2608 28.6472 91.3844 28.8125C91.4724 28.9346 91.5291 29.0728 91.6063 29.2016C91.7031 29.3083 91.8068 29.4108 91.9123 29.507C91.927 29.5205 91.9251 29.5245 91.9358 29.535C92.0248 29.6147 92.1264 29.6723 92.2017 29.7511C92.2975 29.8081 92.4207 29.8951 92.4842 29.9442C92.6086 30.0269 92.7387 30.101 92.8734 30.1662C92.9002 30.1733 92.9256 30.1847 92.9487 30.1999C92.9819 30.2164 93.0142 30.2347 93.0454 30.2547L93.0827 30.2737L93.195 30.3276C93.2418 30.3497 93.288 30.3718 93.3368 30.39C93.3363 30.3893 93.336 30.3885 93.336 30.3876C93.336 30.3868 93.3363 30.386 93.3368 30.3853C93.3405 30.3851 93.3441 30.3858 93.3475 30.3872H93.3505C93.3565 30.3903 93.3624 30.3938 93.368 30.3977L93.37 30.3997L93.371 30.4017V30.4045C93.371 30.4045 93.371 30.4064 93.3739 30.4073C93.3867 30.4024 93.4199 30.4188 93.4385 30.4342C93.5303 30.4735 93.6253 30.5102 93.717 30.5427C93.7237 30.5443 93.7301 30.5466 93.7364 30.5494C93.8382 30.5793 93.9387 30.6082 94.0413 30.6331H94.0444C94.0502 30.6331 94.0561 30.6331 94.0638 30.635L94.0677 30.6369C94.0696 30.6369 94.0706 30.6388 94.0716 30.6399C94.1877 30.6677 94.3038 30.6916 94.4217 30.7127C94.4307 30.714 94.4398 30.7147 94.4489 30.7147C94.446 30.7156 94.446 30.7166 94.4441 30.7166C94.4675 30.7205 94.4909 30.7262 94.5144 30.7291C94.5195 30.7301 94.5248 30.7308 94.5301 30.731H94.5341C94.0985 30.6297 93.6725 30.4915 93.2611 30.318C93.2528 30.3146 93.2459 30.3084 93.2417 30.3006H93.2407C93.2366 30.2919 93.2352 30.2822 93.2368 30.2728C93.2384 30.2633 93.2429 30.2545 93.2497 30.2476C93.2565 30.2407 93.2654 30.2361 93.275 30.2342C93.2846 30.2324 93.2944 30.2334 93.3034 30.2373C93.8449 30.4712 94.4151 30.635 94.9995 30.7244C95.0249 30.7244 95.0514 30.7263 95.0769 30.7263C95.0858 30.7236 95.0952 30.7229 95.1044 30.7244C95.1045 30.7245 95.1046 30.7247 95.1047 30.7248C95.1048 30.725 95.1048 30.7252 95.1048 30.7254C95.1048 30.7256 95.1048 30.7257 95.1047 30.7258C95.1046 30.726 95.1045 30.7262 95.1044 30.7263C95.3204 30.7292 95.5364 30.7282 95.7516 30.7263C95.7584 30.7263 95.7653 30.7263 95.7731 30.7244C95.7731 30.7253 95.773 30.7254 95.7711 30.7263C95.7785 30.7263 95.7859 30.7279 95.7926 30.731C95.8611 30.7291 95.9344 30.7137 95.9921 30.7089C96.0262 30.7061 96.0341 30.7166 96.0527 30.6984C96.0604 30.7042 96.0869 30.7004 96.1005 30.7031C96.1065 30.7031 96.1113 30.703 96.1162 30.7013C96.1688 30.6796 96.2253 30.6682 96.2824 30.6677V30.6696L96.294 30.6668C96.3096 30.6623 96.3261 30.6616 96.342 30.6648C96.3478 30.6667 96.3459 30.6706 96.3391 30.6753C96.3317 30.6785 96.3235 30.6795 96.3155 30.6782C96.3091 30.6763 96.3023 30.6767 96.2962 30.6793C96.2598 30.698 96.2187 30.7062 96.1777 30.7031C96.1806 30.7147 96.1583 30.7137 96.1181 30.7156C96.1103 30.7156 96.1014 30.7176 96.0927 30.7185V30.7196C96.0653 30.7234 95.9871 30.7454 95.9832 30.7329C95.9832 30.7359 95.9784 30.7387 95.9714 30.7417C95.9755 30.7417 95.9784 30.7417 95.9803 30.7445V30.7455C95.9824 30.7444 95.9847 30.7437 95.9871 30.7436C95.994 30.7428 96.0009 30.7415 96.0076 30.7396L96.0194 30.7379C96.0312 30.736 96.0418 30.7349 96.0527 30.7339V30.732C96.1177 30.7211 96.1833 30.7134 96.2491 30.7089C96.3281 30.6985 96.4064 30.6838 96.4837 30.6648C96.558 30.6437 96.6362 30.6205 96.73 30.5899C96.7344 30.5878 96.7391 30.5861 96.7438 30.585C96.7909 30.5689 96.8368 30.5513 96.8816 30.5323L96.8895 30.5245C96.9168 30.5129 96.9476 30.5024 96.9795 30.4908C97.0343 30.4659 97.0879 30.441 97.1407 30.4147C97.1407 30.4147 97.1426 30.4119 97.1407 30.4109C97.1445 30.4086 97.149 30.4075 97.1535 30.4081C97.1662 30.4024 97.1779 30.3965 97.1922 30.3908C97.1922 30.3879 97.1941 30.386 97.1989 30.3832C97.2479 30.3571 97.2986 30.3312 97.3476 30.3052L97.3505 30.3109C97.3956 30.3052 97.4318 30.368 97.3848 30.3937C97.2057 30.4921 97.0202 30.5787 96.8295 30.653C96.827 30.659 96.823 30.6643 96.8178 30.6684C96.8127 30.6724 96.8066 30.675 96.8001 30.6761C96.7073 30.7016 96.6173 30.7361 96.5313 30.779C96.4906 30.7967 96.4479 30.8095 96.4041 30.817C96.3954 30.8189 96.3875 30.8199 96.3788 30.8208C96.2335 30.8454 96.087 30.8624 95.9398 30.8717C95.8052 30.908 95.6668 30.9287 95.5273 30.9332C95.3093 30.9967 95.0804 31.0161 94.8546 30.9902C94.5953 31.0076 94.3349 30.9804 94.0853 30.9096H94.0734C94.0541 30.9096 94.0347 30.9097 94.0177 30.9078C94.0018 30.9252 93.9808 30.9375 93.9575 30.9428C93.9342 30.9481 93.9098 30.9462 93.8877 30.9374C93.8399 30.921 93.7909 30.9037 93.7431 30.8866C93.4193 30.8098 93.1054 30.6974 92.8074 30.5512C92.7743 30.5379 92.7429 30.5224 92.7106 30.508C92.6208 30.475 92.533 30.4369 92.4476 30.3939C92.4476 30.3939 92.4476 30.3967 92.4447 30.3986C92.4406 30.3947 92.4367 30.3906 92.4331 30.3862C92.3731 30.3544 92.315 30.3194 92.2589 30.2814C92.2548 30.2802 92.2512 30.2779 92.2483 30.2748L92.2434 30.2717C92.1836 30.2302 92.1267 30.1847 92.0733 30.1354C92.0263 30.1018 91.9795 30.0692 91.9315 30.0346L91.9219 30.0277C91.9194 30.0274 91.9171 30.0268 91.9149 30.0258C91.9131 30.0243 91.9118 30.0224 91.911 30.0202C91.8386 29.9683 91.7672 29.9135 91.6999 29.8549C91.4818 29.6429 91.2771 29.418 91.087 29.1814C90.7441 28.7583 90.4973 28.2679 90.3633 27.7433C90.3606 27.7373 90.3596 27.7307 90.3604 27.7242C90.338 27.6672 90.3165 27.6069 90.3024 27.5618C90.271 27.4677 90.2584 27.3563 90.2223 27.2351C90.2066 27.1853 90.188 27.1092 90.1733 27.0345C90.1586 26.9597 90.1469 26.8875 90.1431 26.8432C90.1303 26.7308 90.1127 26.606 90.1098 26.5088C90.1069 26.4542 90.1099 26.3456 90.1118 26.3456C90.1118 26.3129 90.1069 26.3205 90.1059 26.2736C90.1094 26.2651 90.1123 26.2563 90.1146 26.2475C90.1166 26.2244 90.1059 26.188 90.1059 26.1612C90.1059 26.0967 90.1128 26.0495 90.1157 25.9997C90.1207 25.8883 90.1185 25.7383 90.1349 25.6259C90.1388 25.4905 90.1458 25.354 90.1593 25.2196C89.8881 26.0995 89.8765 27.037 90.126 27.9232C90.3754 28.8093 90.8757 29.6077 91.5685 30.2256C92.2614 30.8435 93.1184 31.2555 94.0401 31.4137C94.9617 31.5719 95.9101 31.4699 96.7751 31.1194C96.8912 31.0722 97.0073 31.0205 97.1221 30.9638C97.261 30.8936 97.3953 30.8186 97.5248 30.7388C97.5299 30.7352 97.5357 30.7303 97.5415 30.7256C97.5386 30.7199 97.5367 30.713 97.5475 30.7198C97.5533 30.7139 97.5581 30.7082 97.5641 30.7008C97.6654 30.639 97.7606 30.5682 97.8487 30.4893C97.8651 30.4758 97.8925 30.4682 97.9121 30.4538C97.962 30.4182 98.0294 30.3567 98.067 30.325C98.1369 30.2671 98.2038 30.2059 98.2675 30.1415C98.2675 30.1397 98.2704 30.1376 98.2723 30.1348C98.2733 30.1348 98.2732 30.1348 98.2751 30.1348C98.2771 30.1348 98.2771 30.132 98.2781 30.1311C98.2974 30.1099 98.3168 30.0867 98.3362 30.0647C98.4396 29.9046 98.5525 29.7506 98.6744 29.6036C98.7126 29.5373 98.7551 29.4734 98.8016 29.4123C98.8056 29.4076 98.8102 29.4035 98.8153 29.3999C98.9948 29.0962 99.1348 28.7715 99.2318 28.4334C99.2333 28.4267 99.237 28.4206 99.2424 28.4162C99.2795 28.2739 99.3139 28.1308 99.3443 27.9867C99.3392 27.9836 99.3411 27.9808 99.3452 27.9789C99.3549 27.9298 99.3645 27.8819 99.3744 27.8319C99.3872 27.7195 99.3978 27.6071 99.4058 27.4956C99.4038 27.2554 99.3949 27.0143 99.3823 26.773C99.3754 26.653 99.3705 26.5318 99.363 26.4116V26.4097V26.4078C99.3626 26.4063 99.3626 26.4047 99.363 26.4031C99.3534 26.1913 99.3316 25.9802 99.2974 25.7709C99.2935 25.7545 99.2907 25.7391 99.2878 25.7228C99.2436 25.5815 99.1919 25.4423 99.1352 25.3069C99.1314 25.2955 99.128 25.2839 99.1253 25.2722C99.0794 25.1655 99.0129 25.0733 98.9787 24.9726C98.9181 24.8822 98.8431 24.7563 98.8075 24.6873C98.7374 24.5757 98.6607 24.4682 98.5778 24.3654C98.5435 24.3346 98.5094 24.304 98.4743 24.2723C98.4676 24.2737 98.4606 24.2734 98.4541 24.2713C98.4476 24.2693 98.4418 24.2657 98.4372 24.2607C98.2377 24.0745 98.0383 23.8898 97.833 23.7121C97.8297 23.7108 97.8267 23.7089 97.8241 23.7065C97.821 23.7034 97.818 23.7002 97.8153 23.6968C97.5182 23.4365 97.1964 23.2049 96.8543 23.0051L96.8133 22.9878C96.7154 22.9577 96.6237 22.9109 96.5424 22.8495C96.5393 22.8459 96.5367 22.842 96.5344 22.8379C96.5187 22.8273 96.5032 22.8168 96.4875 22.8071C96.4806 22.8033 96.4738 22.8014 96.467 22.7976C96.4619 22.8017 96.4556 22.8043 96.449 22.805C96.4424 22.8056 96.4358 22.8044 96.4299 22.8014C96.3732 22.7756 96.3138 22.7524 96.2557 22.7303C96.2205 22.7179 96.1833 22.7054 96.1491 22.6909C96.1476 22.6901 96.1459 22.6894 96.1442 22.689C95.9388 22.6169 95.7265 22.5651 95.5106 22.5344C95.4991 22.5328 95.4886 22.5269 95.4813 22.518C95.3728 22.5045 95.2652 22.4891 95.1567 22.4799C95.1294 22.479 95.1021 22.479 95.0746 22.4781C95.0472 22.4771 95.0165 22.4799 94.9886 22.4799C94.9025 22.4847 94.8166 22.4925 94.7314 22.499C94.7247 22.4992 94.7182 22.4978 94.7121 22.495C94.5225 22.5094 94.3328 22.5298 94.1441 22.5521C94.2494 22.5633 94.3554 22.5646 94.4609 22.5559C94.4696 22.5559 94.4756 22.5578 94.4756 22.5606C94.4756 22.5635 94.4697 22.5672 94.4619 22.5672H94.4609C94.3394 22.5785 94.217 22.576 94.0961 22.5597C94.0532 22.5654 94.0355 22.555 93.9964 22.5597C93.9808 22.5538 93.975 22.5481 93.974 22.5407C93.9599 22.5433 93.9455 22.5449 93.931 22.5454C93.931 22.5454 93.9281 22.5454 93.927 22.5473C93.9184 22.5511 93.9089 22.5522 93.8997 22.5503L93.893 22.553L93.891 22.5541L93.8869 22.5551C93.8645 22.5589 93.8469 22.5541 93.8459 22.5473V22.5454L93.8507 22.5435V22.5425H93.8459C93.9872 22.4761 94.141 22.4391 94.2976 22.434C94.3415 22.4273 94.3846 22.4225 94.4286 22.4197C94.4286 22.4185 94.4305 22.4197 94.4324 22.4197C94.4344 22.4197 94.4404 22.4176 94.4433 22.4166C94.4485 22.4141 94.4542 22.4132 94.4599 22.4138C94.4652 22.4143 94.4704 22.4143 94.4756 22.4138C94.4777 22.4136 94.4796 22.4129 94.4814 22.4119H94.4824C94.485 22.4124 94.4876 22.4124 94.4902 22.4119C94.502 22.4119 94.5126 22.41 94.5234 22.41C94.5254 22.41 94.5293 22.41 94.5353 22.41C94.5879 22.4081 94.6407 22.4043 94.6935 22.4013H94.7072C94.7775 22.3965 94.8489 22.3936 94.9201 22.3917C94.9886 22.3917 95.0557 22.3917 95.1236 22.3946H95.2466C95.2809 22.3946 95.3152 22.3965 95.3494 22.3993C95.5256 22.4101 95.7011 22.4301 95.8752 22.459C96.0163 22.4641 96.1544 22.5005 96.2791 22.5656C96.2888 22.5684 96.2997 22.5703 96.3084 22.5734C96.3896 22.5904 96.4698 22.6115 96.5489 22.6367C96.6426 22.6611 96.7347 22.6913 96.8245 22.727C96.9577 22.7792 97.0873 22.8395 97.2127 22.9077C97.3853 22.9944 97.5495 23.0963 97.7035 23.212C97.8793 23.3116 98.0474 23.4237 98.2066 23.5473C98.2375 23.5691 98.2672 23.5925 98.2954 23.6175C98.3214 23.6404 98.3455 23.6651 98.3678 23.6914C98.5085 23.8306 98.6279 23.9892 98.7549 24.14C98.7555 24.1406 98.7563 24.141 98.7571 24.1411C98.8331 24.2051 98.9052 24.2733 98.9731 24.3456C98.9731 24.3466 98.9749 24.3466 98.9759 24.3485C98.9786 24.352 98.9816 24.3553 98.9848 24.3583C98.9866 24.3617 98.9893 24.3646 98.9925 24.3668C98.9925 24.3687 98.9926 24.3686 98.9936 24.3696C99.3445 24.7707 99.5881 25.2515 99.7024 25.7684C99.7179 25.8174 99.7317 25.8675 99.7474 25.9155C99.7513 25.9242 99.7532 25.9318 99.7561 25.9396C99.7708 25.9847 99.7864 26.0289 99.803 26.0727C99.7116 25.2948 99.4304 24.5502 98.9833 23.902C98.5361 23.2539 97.9363 22.7216 97.2348 22.3502C96.5333 21.9788 95.7509 21.7794 94.9542 21.769C94.1574 21.7586 93.3699 21.9375 92.6586 22.2904L92.6589 22.2908Z" fill="#079D49"/>
<path d="M109.74 24.7181C109.613 24.0013 109.439 23.2934 109.22 22.5987C108.904 21.5832 108.577 20.5725 108.254 19.56C108.235 19.5032 108.205 19.4508 108.165 19.4061C108.054 19.2795 107.937 19.1589 107.822 19.0352C107.625 18.8438 107.489 18.6006 107.431 18.335C107.399 18.158 107.313 17.9949 107.183 17.8681C107.163 17.8461 107.145 17.8219 107.125 17.7989C106.405 16.9277 105.616 16.1128 104.767 15.3615C103.871 14.5636 102.854 13.9066 101.753 13.4142C101.694 13.3881 101.637 13.3572 101.579 13.3258C100.577 12.7874 99.5218 12.35 98.43 12.0202C97.6268 11.7611 96.7997 11.5796 95.9605 11.4784C95.2268 11.4041 94.4863 11.4277 93.759 11.5484C92.7499 11.7155 91.75 11.9259 90.7593 12.1796C89.8436 12.3945 88.9523 12.6999 88.0992 13.0913C87.4704 13.3956 86.8528 13.7235 86.2414 14.0612C84.6237 14.9569 83.2453 16.2169 82.2195 17.7379C81.9872 18.0768 81.78 18.4248 81.5845 18.7777C80.6645 20.2986 80.0296 21.9693 79.7098 23.7105C79.5817 24.3619 79.4987 25.0199 79.4371 25.681C79.3844 26.2617 79.39 26.8461 79.4537 27.4257C79.5341 28.1361 79.6578 28.841 79.8242 29.5368C80.0071 30.3295 80.2006 31.12 80.3893 31.9118C80.3962 31.9405 80.4136 31.9742 80.4059 31.9981C80.3911 32.0693 80.4008 32.1434 80.4334 32.2086C80.5474 32.5905 80.6905 32.9633 80.8615 33.324C81.0634 33.7804 81.3297 34.2067 81.6524 34.5903C81.8225 34.7843 81.9857 34.9851 82.1491 35.185C82.2509 35.3078 82.3486 35.4347 82.4473 35.5597C82.588 35.7345 82.7376 35.9019 82.8667 36.0851C83.744 37.3221 84.856 38.3812 86.1417 39.2042C88.077 40.4493 90.2203 41.1322 92.4964 41.4454C92.8933 41.5002 93.2922 41.5348 93.6901 41.5848C94.4311 41.6694 95.1803 41.6539 95.917 41.5386C96.3667 41.4734 96.8018 41.3513 97.2427 41.2467C98.237 41.0103 99.2341 40.7836 100.23 40.5558C100.519 40.5266 100.787 40.3956 100.985 40.187C101.268 39.9351 101.625 39.7779 102.005 39.7381C102.06 39.7308 102.113 39.7097 102.157 39.6767C102.549 39.3981 102.942 39.1195 103.328 38.8342C103.662 38.587 103.983 38.3222 104.319 38.0771C104.869 37.6767 105.385 37.2326 105.861 36.7494C106.618 35.97 107.265 35.093 107.782 34.1426C108.137 33.5655 108.446 32.9617 108.705 32.337C109.477 30.4682 109.811 28.5161 109.863 26.2689C109.87 25.7493 109.829 25.2302 109.74 24.7181ZM101.551 31.4298C101.208 34.1766 100.689 36.5268 100.666 36.6255L100.477 37.4795L99.7894 37.1798L99.6632 37.1251C99.5693 37.0838 97.3385 36.1066 94.8845 34.7538C91.5009 32.8881 89.4381 31.2645 88.7509 29.9281L88.6942 29.8196C88.6394 29.7226 88.6102 29.6621 88.578 29.5985C88.5604 29.562 88.5393 29.5198 88.5095 29.4622C86.9249 26.3832 88.0863 22.6156 91.0835 20.7518C91.2792 20.6297 91.4833 20.5154 91.6946 20.4108C92.6941 19.9131 93.7984 19.6525 94.9188 19.6501C96.1732 19.6364 97.4066 19.9668 98.4805 20.6041C99.5543 21.2414 100.426 22.1603 100.998 23.2577C101.04 23.3376 101.074 23.4068 101.108 23.4749C101.142 23.5401 101.175 23.6056 101.215 23.6814L101.229 23.7085L101.237 23.7248C101.92 25.0506 102.026 27.6435 101.551 31.4298Z" fill="#079D49"/>
<path d="M96.4967 30.7661L96.4938 30.7604C96.4566 30.7806 96.4185 30.7998 96.3804 30.8199C96.3891 30.819 96.397 30.818 96.4057 30.8161C96.4195 30.8142 96.4332 30.8102 96.4467 30.8073L96.4685 30.8017C96.4904 30.7948 96.5119 30.7868 96.5329 30.7777C96.5281 30.7733 96.5224 30.7699 96.5161 30.7679C96.5098 30.7659 96.5033 30.7653 96.4967 30.7661ZM99.6652 37.1243C99.5713 37.083 97.3405 36.1058 94.8865 34.753C91.5029 32.8874 89.4401 31.2638 88.7529 29.9274L88.6962 29.8188C88.6414 29.7218 88.6121 29.6613 88.58 29.5978C88.5624 29.5613 88.5413 29.5191 88.5115 29.4615C88.044 28.5548 87.8008 27.5524 87.8018 26.536C87.8018 26.4198 87.8048 26.3034 87.8116 26.1872C87.8116 26.1756 87.8115 26.1643 87.8137 26.1527C87.8137 26.1316 87.8156 26.1114 87.8175 26.0903C87.8224 26.0239 87.8272 25.9572 87.8342 25.8914C87.8411 25.8256 87.8487 25.7569 87.8576 25.6905C87.8644 25.6388 87.8714 25.5878 87.8801 25.5368C87.8801 25.5233 87.8839 25.51 87.8859 25.4965C87.8909 25.4676 87.8958 25.4395 87.9006 25.409C87.9172 25.3139 87.9367 25.2169 87.9586 25.1209C87.9635 25.0939 87.9704 25.068 87.9762 25.041C87.9764 25.0387 87.9771 25.0364 87.9782 25.0343C87.9919 24.9759 88.0066 24.9173 88.0223 24.8586C88.0388 24.7942 88.0573 24.7299 88.0759 24.6654C88.0786 24.6578 88.081 24.6502 88.0829 24.6425C88.1022 24.5782 88.1216 24.5146 88.1435 24.4512C88.1903 24.3118 88.2411 24.1744 88.296 24.0391C88.3213 23.9775 88.3468 23.9161 88.3734 23.8547C88.4018 23.7893 88.4314 23.725 88.4633 23.6605C88.4916 23.6 88.5214 23.5395 88.5534 23.48C88.565 23.4558 88.5777 23.4328 88.5905 23.4089C88.613 23.3655 88.6363 23.3224 88.6607 23.2802C88.6941 23.2196 88.7284 23.16 88.7635 23.1014C88.7655 23.0991 88.7671 23.0965 88.7684 23.0938C88.8055 23.0322 88.8436 22.9707 88.8827 22.9102C88.8846 22.9073 88.8866 22.9036 88.8886 22.9005C88.9257 22.8435 88.9638 22.7864 89.0029 22.7305C89.0441 22.671 89.0861 22.6124 89.129 22.5538C89.172 22.4952 89.2162 22.4375 89.2611 22.3808C89.306 22.3241 89.352 22.2667 89.3988 22.2108C89.441 22.1609 89.484 22.1109 89.527 22.0609C89.5397 22.0476 89.5513 22.0341 89.5641 22.0206C89.6051 21.9745 89.6481 21.9283 89.6913 21.8832C89.6948 21.8799 89.698 21.8763 89.7009 21.8725C89.7489 21.8225 89.7977 21.7737 89.8457 21.7255L89.871 21.7007C89.9161 21.6575 89.9611 21.6142 90.0065 21.572C90.0603 21.5219 90.1161 21.4721 90.1728 21.423C90.2295 21.3739 90.2862 21.326 90.3439 21.2789C90.4016 21.2317 90.46 21.1857 90.518 21.1406C90.518 21.1406 90.518 21.1396 90.5199 21.1396C90.5795 21.0934 90.6412 21.0483 90.7027 21.004C90.7079 21.0009 90.7127 20.9975 90.7173 20.9936C90.774 20.9533 90.8317 20.9138 90.8904 20.8743C90.949 20.8347 91.0156 20.7928 91.0791 20.7524C90.997 20.788 90.9179 20.8264 90.8375 20.8666C87.3943 22.5767 85.9661 26.6376 87.6544 29.9192C87.6848 29.9762 87.7053 30.0191 87.7229 30.0556C87.7543 30.1189 87.7834 30.1796 87.839 30.2766L87.8957 30.3852C88.5829 31.7214 90.6458 33.3452 94.0294 35.2109C96.4832 36.5636 98.7141 37.5406 98.808 37.5818L99.6209 37.9364L99.789 37.1804L99.6652 37.1243ZM99.3838 26.7723C99.3768 26.6522 99.372 26.5311 99.3644 26.4109V26.409V26.4071C99.364 26.4056 99.364 26.4039 99.3644 26.4024C99.3549 26.1906 99.333 25.9795 99.2988 25.7702C99.295 25.7538 99.292 25.7384 99.2891 25.7221C99.245 25.5808 99.1933 25.4416 99.1366 25.3061C99.1327 25.2948 99.1294 25.2832 99.1267 25.2715C99.0809 25.1648 99.0143 25.0726 98.9801 24.9718C98.9195 24.8815 98.8446 24.7556 98.809 24.6866C98.7389 24.575 98.6622 24.4674 98.5792 24.3647C98.545 24.3339 98.5108 24.3033 98.4758 24.2716C98.4691 24.273 98.4621 24.2728 98.4555 24.2707C98.449 24.2687 98.4431 24.2649 98.4385 24.26C98.239 24.0736 98.0397 23.8893 97.8343 23.7115C97.831 23.7101 97.828 23.7082 97.8254 23.7057C97.8223 23.7027 97.8194 23.6995 97.8167 23.6961C97.5196 23.4359 97.1978 23.2042 96.8557 23.0044L96.8147 22.9871C96.7168 22.957 96.625 22.9102 96.5437 22.8488C96.5407 22.8452 96.538 22.8413 96.5358 22.8372C96.5201 22.8266 96.5047 22.8161 96.489 22.8064C96.482 22.8026 96.4752 22.8007 96.4685 22.7969C96.4633 22.801 96.457 22.8036 96.4504 22.8042C96.4438 22.8049 96.4371 22.8037 96.4312 22.8007C96.3745 22.7748 96.3151 22.7516 96.2571 22.7296C96.2219 22.7172 96.1847 22.7047 96.1505 22.6902C96.9103 23.0437 97.5659 23.5816 98.0556 24.2531C98.5453 24.9246 98.853 25.7075 98.9495 26.5282C98.9328 26.4841 98.9171 26.44 98.9024 26.3951C98.8995 26.3875 98.8976 26.3797 98.8937 26.3712C98.878 26.3231 98.8643 26.2732 98.8486 26.2242C98.7345 25.7072 98.4909 25.2265 98.1399 24.8254C98.139 24.8244 98.139 24.8244 98.139 24.8225C98.1357 24.8202 98.133 24.8172 98.131 24.8138C98.1279 24.8109 98.125 24.8076 98.1223 24.8042C98.1223 24.8023 98.1204 24.8024 98.1194 24.8014C98.0515 24.7291 97.9794 24.6608 97.9033 24.5968C97.9029 24.5967 97.9025 24.5966 97.9022 24.5964C97.9018 24.5962 97.9015 24.596 97.9013 24.5957C97.7744 24.4448 97.655 24.2863 97.5143 24.1469C97.4919 24.1207 97.4677 24.0961 97.4419 24.073C97.4135 24.0481 97.3838 24.0248 97.3529 24.003C97.1937 23.8793 97.0255 23.7673 96.8497 23.6678C96.6957 23.5521 96.5315 23.4502 96.359 23.3635C96.2335 23.2954 96.1038 23.2351 95.9707 23.1829C95.8808 23.1472 95.7888 23.117 95.6951 23.0926C95.6161 23.0673 95.5358 23.0461 95.4545 23.0291C95.4458 23.0262 95.4352 23.0243 95.4253 23.0214C95.3006 22.9564 95.1625 22.9199 95.0215 22.9147C94.8136 22.8794 94.6036 22.858 94.3929 22.8505H94.2697C94.2022 22.8465 94.1343 22.8465 94.0664 22.8474C93.9959 22.8495 93.9245 22.8524 93.8535 22.8572H93.8398C93.7869 22.86 93.734 22.8638 93.6812 22.8657C93.6773 22.8659 93.6734 22.8662 93.6696 22.8668C93.6588 22.8668 93.6481 22.8669 93.6363 22.8688C93.6344 22.8688 93.6315 22.8688 93.6286 22.8688C93.628 22.8683 93.6277 22.8676 93.6276 22.8668C93.6261 22.8678 93.6244 22.8684 93.6226 22.8688C93.6171 22.8692 93.6115 22.8692 93.606 22.8688C93.6004 22.8683 93.5949 22.8689 93.5896 22.8706C93.5861 22.8722 93.5824 22.8735 93.5787 22.8744C93.5767 22.8744 93.5758 22.8735 93.5748 22.8744C93.5307 22.8773 93.4877 22.8821 93.4437 22.8889C93.2872 22.894 93.1334 22.931 92.9921 22.9975H92.997L92.9921 22.9994L92.9931 23.0013C92.9931 23.0079 93.0124 23.0129 93.0341 23.0089H93.038L93.0401 23.008L93.0469 23.0051C93.056 23.0069 93.0656 23.0059 93.0742 23.0023C93.0742 23.0023 93.0771 23.0023 93.0782 23.0004C93.0927 22.9999 93.107 22.9983 93.1211 22.9956C93.1221 23.0023 93.1279 23.008 93.1436 23.0147C93.1823 23.0107 93.2004 23.0213 93.2433 23.0147C93.3642 23.0309 93.4865 23.0335 93.6079 23.0223H93.609C93.6168 23.0223 93.6236 23.0194 93.6236 23.0156C93.6236 23.0118 93.6168 23.0107 93.6079 23.0107C93.5025 23.0195 93.3965 23.0182 93.2913 23.0069C93.48 22.9839 93.6697 22.9636 93.8593 22.9498C93.8654 22.9524 93.872 22.9537 93.8786 22.9536C93.9636 22.9479 94.0497 22.9402 94.1356 22.9345C94.1641 22.9345 94.1923 22.9346 94.2217 22.9327C94.2511 22.9308 94.2766 22.9336 94.3038 22.9345C94.4124 22.9433 94.52 22.9587 94.6283 22.9726C94.6319 22.9771 94.6363 22.9808 94.6414 22.9836C94.6464 22.9865 94.6521 22.9883 94.6578 22.9889C94.8736 23.0199 95.0858 23.0717 95.2912 23.1436C95.3274 23.159 95.3655 23.1716 95.4027 23.1851C95.4607 23.2071 95.5202 23.2301 95.5769 23.2562C95.5828 23.2593 95.5894 23.2604 95.596 23.2597C95.6026 23.259 95.6088 23.2564 95.6138 23.2522C95.6208 23.2562 95.6276 23.2581 95.6345 23.2619C95.65 23.2714 95.6656 23.2821 95.6813 23.2925C95.6836 23.2966 95.6862 23.3005 95.6891 23.3041C95.7704 23.3656 95.8622 23.4124 95.9601 23.4426L96.0011 23.4597C96.3432 23.6596 96.665 23.8913 96.9621 24.1516C96.9648 24.155 96.9677 24.1581 96.9708 24.1611C96.9734 24.1635 96.9764 24.1654 96.9797 24.1667C97.1848 24.3445 97.3844 24.5281 97.5839 24.7154C97.5885 24.7204 97.5943 24.7241 97.6008 24.7261C97.6073 24.7282 97.6143 24.7285 97.6209 24.7271L97.7246 24.8202C97.8076 24.9229 97.8843 25.0304 97.9543 25.1421C97.9905 25.2113 98.0649 25.337 98.1255 25.4273C98.1597 25.5283 98.2261 25.6205 98.2721 25.727C98.2779 25.7414 98.274 25.7443 98.2818 25.7616C98.3385 25.897 98.3903 26.0364 98.4343 26.1777C98.4374 26.1939 98.4403 26.2093 98.4442 26.2257C98.4784 26.435 98.5002 26.6461 98.5096 26.8579C98.5092 26.8594 98.5092 26.861 98.5096 26.8626V26.8645V26.8666C98.5166 26.9866 98.5214 27.1077 98.529 27.2279C98.5417 27.4691 98.5507 27.7102 98.5526 27.9506C98.5447 28.062 98.5332 28.1744 98.5212 28.2868C98.5115 28.3369 98.5019 28.3848 98.4918 28.4338C98.488 28.4357 98.486 28.4386 98.4918 28.4415C98.4616 28.5856 98.4273 28.7289 98.3901 28.8709C98.3848 28.8755 98.3811 28.8815 98.3794 28.8882C98.2826 29.2264 98.1426 29.5511 97.9628 29.8547C97.9579 29.8584 97.9534 29.8626 97.9493 29.8673C97.9028 29.9283 97.8603 29.9921 97.8221 30.0584C97.6995 30.2056 97.5858 30.3598 97.4818 30.5202C97.4624 30.5422 97.4431 30.5653 97.4237 30.5864V30.5875C97.4237 30.5875 97.4218 30.5904 97.4208 30.5913C97.4198 30.5923 97.4188 30.5913 97.4179 30.5913C97.4161 30.5934 97.4145 30.5957 97.4131 30.598C97.3494 30.6624 97.2824 30.7237 97.2125 30.7815C97.1754 30.8133 97.1079 30.8746 97.0578 30.9102C97.0384 30.9247 97.0107 30.9323 96.9941 30.9458C96.9188 30.9996 96.8524 31.0677 96.7762 31.1187C96.829 31.0976 96.8816 31.0746 96.9344 31.0514C96.9981 31.0236 97.0606 30.9943 97.1231 30.9631C97.2621 30.8929 97.3964 30.8179 97.5259 30.7383L97.5425 30.7249C97.5396 30.7192 97.5377 30.7123 97.5486 30.7191C97.5544 30.7132 97.5592 30.7075 97.565 30.7001C97.6663 30.6383 97.7616 30.5676 97.8496 30.4886C97.8661 30.4753 97.8936 30.4675 97.9131 30.453C97.9631 30.4175 98.0304 30.3561 98.0679 30.3243C98.1364 30.2673 98.2034 30.2062 98.2684 30.1409C98.2699 30.1386 98.2715 30.1363 98.2733 30.1342C98.2742 30.1342 98.2743 30.1342 98.2762 30.1342C98.2781 30.1342 98.2781 30.1313 98.2791 30.1304C98.2985 30.1092 98.3178 30.0862 98.3371 30.064C98.4406 29.9039 98.5536 29.7499 98.6754 29.6029C98.7137 29.5366 98.7562 29.4727 98.8026 29.4116C98.8067 29.4069 98.8112 29.4028 98.8163 29.3992C98.9959 29.0955 99.1358 28.7708 99.2328 28.4327C99.2343 28.426 99.238 28.4199 99.2434 28.4155C99.2806 28.2732 99.3148 28.1301 99.3452 27.986C99.3402 27.9831 99.3421 27.9801 99.3462 27.9782C99.3558 27.9293 99.3656 27.8812 99.3755 27.8312C99.3882 27.7188 99.3988 27.6064 99.4067 27.4949C99.4052 27.2545 99.3964 27.0134 99.3838 26.7723ZM96.5329 30.7777C96.5281 30.7733 96.5224 30.7699 96.5161 30.7679C96.5098 30.7659 96.5033 30.7653 96.4967 30.7661L96.4938 30.7604C96.4566 30.7806 96.4185 30.7998 96.3804 30.8199C96.3686 30.8257 96.3579 30.8324 96.3461 30.8389C96.3413 30.8417 96.3394 30.8437 96.3394 30.8465C96.3257 30.8524 96.3138 30.8582 96.3006 30.8639C96.2962 30.8633 96.2917 30.8643 96.2879 30.8667C96.2879 30.8678 96.2879 30.8697 96.2879 30.8707C96.2351 30.8975 96.1813 30.9225 96.1265 30.9468C96.0944 30.9582 96.064 30.9688 96.0367 30.9804L96.0288 30.988C95.9839 31.007 95.9379 31.0245 95.8909 31.0409C95.8862 31.042 95.8816 31.0437 95.8772 31.0457C95.7833 31.0765 95.7052 31.0995 95.6309 31.1206C95.5536 31.1396 95.4753 31.1544 95.3963 31.1649C95.3305 31.1693 95.2649 31.177 95.1999 31.188V31.1898C95.189 31.1898 95.1782 31.1917 95.1666 31.1936L95.1548 31.1955C95.1481 31.1972 95.1412 31.1985 95.1343 31.1993C95.1319 31.1995 95.1296 31.2002 95.1275 31.2012C95.1255 31.1993 95.1225 31.1993 95.1186 31.1984C95.1256 31.1955 95.1304 31.1927 95.1304 31.1898C95.1343 31.2022 95.2124 31.1802 95.2399 31.1764C95.2486 31.1764 95.2575 31.1735 95.2653 31.1735C95.3063 31.1716 95.3278 31.1735 95.3249 31.1609C95.3658 31.1642 95.4068 31.1559 95.4431 31.137C95.4494 31.1348 95.4562 31.1348 95.4625 31.137C95.4705 31.1383 95.4787 31.1373 95.4861 31.1341C95.4929 31.1292 95.4948 31.1253 95.489 31.1234C95.4731 31.1203 95.4566 31.121 95.441 31.1254L95.4294 31.1282L95.4303 31.1263C95.3732 31.127 95.3168 31.1384 95.2641 31.1599C95.2593 31.1599 95.2542 31.16 95.2484 31.1619C95.2347 31.159 95.2084 31.1619 95.2006 31.1571C95.1813 31.1761 95.1741 31.1647 95.1408 31.1677C95.0827 31.1725 95.0089 31.1879 94.9406 31.1898C94.9339 31.1867 94.9265 31.185 94.919 31.1849C94.919 31.1849 94.921 31.1848 94.921 31.1829C94.9131 31.1829 94.9063 31.183 94.8996 31.1849C94.6843 31.1879 94.4685 31.1886 94.2522 31.1869C94.2522 31.1869 94.2533 31.1849 94.2522 31.184C94.243 31.1825 94.2337 31.1831 94.2248 31.1858C94.1995 31.1858 94.173 31.1859 94.1475 31.184C93.5629 31.0947 92.9927 30.9309 92.4512 30.6969C92.4422 30.6931 92.4323 30.692 92.4227 30.6938C92.4131 30.6957 92.4043 30.7004 92.3975 30.7073C92.3907 30.7142 92.3862 30.723 92.3846 30.7325C92.3831 30.742 92.3845 30.7517 92.3887 30.7604H92.3896C92.394 30.7681 92.4008 30.7742 92.409 30.7777C92.8204 30.9512 93.2463 31.0893 93.6819 31.1907H93.678C93.6727 31.1905 93.6675 31.19 93.6623 31.1889C93.6389 31.186 93.6154 31.1802 93.592 31.1764C93.5939 31.1764 93.5939 31.1763 93.5968 31.1744C93.5876 31.1743 93.5785 31.1737 93.5694 31.1725C93.4512 31.1514 93.3358 31.1272 93.2195 31.0995C93.2195 31.0985 93.2176 31.0966 93.2156 31.0966L93.2116 31.0947C93.2038 31.0938 93.198 31.0938 93.1922 31.0929H93.1893C93.0867 31.0678 92.9861 31.039 92.8843 31.0091C92.8781 31.0063 92.8716 31.0042 92.865 31.0025C92.773 30.9698 92.6782 30.9332 92.5863 30.8939C92.5669 30.8785 92.5346 30.8622 92.5218 30.8669C92.5199 30.8669 92.5189 30.865 92.5189 30.8641V30.8612L92.518 30.8593L92.516 30.8574C92.5103 30.8535 92.5045 30.8499 92.4984 30.8467H92.4955C92.492 30.8453 92.4884 30.8447 92.4847 30.8448C92.4842 30.8455 92.4839 30.8464 92.4839 30.8472C92.4839 30.8481 92.4842 30.8489 92.4847 30.8496C92.4357 30.8306 92.3898 30.8092 92.343 30.7872L92.3008 30.767C92.3042 30.7695 92.3079 30.7718 92.3117 30.7737C92.3361 30.7891 92.3604 30.8035 92.386 30.818C92.4053 30.8285 92.4247 30.84 92.4441 30.8505C92.4675 30.864 92.4908 30.8766 92.5154 30.8901C92.6385 30.9562 92.7656 31.0177 92.8947 31.0735C92.9334 31.0908 92.9749 31.108 93.0149 31.1244C93.0178 31.1244 93.0208 31.1272 93.0248 31.1282C93.056 31.1407 93.0873 31.1533 93.1196 31.1647C93.2574 31.2176 93.3991 31.2638 93.5419 31.3041C93.5682 31.3117 93.5947 31.3186 93.621 31.3252C93.6895 31.3442 93.7589 31.3599 93.8283 31.3743C93.8578 31.381 93.8864 31.3876 93.9164 31.3933C94.0033 31.4106 94.0905 31.4249 94.1772 31.4375C94.1792 31.4379 94.1813 31.4379 94.1833 31.4375C94.2195 31.4432 94.2547 31.4471 94.2907 31.4519L94.3153 31.4548H94.3172C94.4393 31.4501 94.5601 31.4285 94.676 31.3905C94.8155 31.386 94.954 31.3653 95.0885 31.3288C95.2443 31.319 95.3994 31.3007 95.5531 31.274C95.6998 31.2501 95.8083 31.16 95.949 31.133C95.9555 31.1319 95.9616 31.1292 95.9668 31.1251C95.9719 31.121 95.9759 31.1158 95.9784 31.1098C96.1691 31.0355 96.3546 30.9489 96.5337 30.8505C96.5404 30.847 96.5461 30.8418 96.55 30.8354C96.554 30.8289 96.5561 30.8216 96.5561 30.8141C96.5561 30.8066 96.5539 30.7991 96.5499 30.7927C96.546 30.7863 96.5403 30.7812 96.5335 30.7777H96.5329Z" fill="#057832"/>
</svg>
