<svg width="56" height="13" viewBox="0 0 56 13" fill="none" xmlns="http://www.w3.org/2000/svg">
<path d="M5.14352 4.82165C4.73184 4.68223 4.30176 4.60741 3.86803 4.59974C3.50118 4.59974 3.20939 4.66519 2.99266 4.79608C2.77594 4.92697 2.66755 5.12899 2.66748 5.40212C2.66748 5.68669 2.80367 5.90574 3.07603 6.0593C3.34838 6.21285 3.7791 6.37503 4.3682 6.54584C4.89126 6.70201 5.40368 6.89304 5.90217 7.11771C6.30842 7.31052 6.66517 7.59693 6.94428 7.95432C7.23867 8.3243 7.38595 8.81084 7.38611 9.41393C7.38611 10.3017 7.05265 10.9845 6.38571 11.4624C5.71878 11.9404 4.87954 12.1794 3.86803 12.1794C3.18231 12.18 2.50102 12.0676 1.85049 11.8465C1.19447 11.6246 0.63866 11.3088 0.183105 10.8991L0.933436 9.34565C1.35577 9.71154 1.84235 9.99248 2.36737 10.1735C2.87497 10.3639 3.41057 10.4649 3.95137 10.4723C4.35155 10.4723 4.67115 10.4012 4.91014 10.2589C5.02276 10.1972 5.11608 10.1045 5.17947 9.99131C5.24286 9.87811 5.27375 9.74901 5.2686 9.61877C5.2686 9.30028 5.12964 9.06129 4.85172 8.9018C4.5738 8.74231 4.12364 8.56593 3.5012 8.37262C3.00065 8.22765 2.51039 8.04798 2.03387 7.83487C1.64754 7.65178 1.31012 7.37658 1.05013 7.03251C0.772116 6.67402 0.633168 6.20457 0.633295 5.62417C0.633295 4.72528 0.952875 4.03958 1.59204 3.56709C2.23121 3.0946 3.03434 2.85845 4.00142 2.85864C4.59123 2.85884 5.17798 2.94514 5.74378 3.11493C6.28591 3.27129 6.8007 3.51321 7.26941 3.8319L6.48575 5.43659C6.06299 5.17974 5.61262 4.97339 5.14352 4.82165Z" fill="black"/>
<path d="M15.8279 3.82259C16.4169 4.45421 16.7115 5.31061 16.7116 6.39177V12.0935H14.5274V7.0405C14.5274 6.4033 14.3495 5.89971 13.9938 5.5297C13.638 5.1597 13.1545 4.97476 12.5432 4.97493C11.8205 4.98637 11.2481 5.23673 10.826 5.72602C10.4038 6.21531 10.1927 6.84125 10.1924 7.60383V12.0935H8.02454V0H10.1924V4.70175C10.8036 3.50681 11.8762 2.89796 13.4104 2.8752C14.4329 2.8752 15.2387 3.19099 15.8279 3.82259Z" fill="black"/>
<path d="M36.7837 3.80592C37.3728 4.4348 37.6674 5.28752 37.6674 6.36408V12.0414H35.483V7.01C35.483 6.37547 35.3052 5.87403 34.9495 5.50567C34.5937 5.1373 34.1102 4.95318 33.4988 4.95327C32.7761 4.96469 32.2037 5.21397 31.7816 5.70113C31.3595 6.18829 31.1483 6.81156 31.148 7.57091V12.0413H28.9803V0H31.148V4.68154C31.7592 3.49173 32.8318 2.8855 34.366 2.86283C35.3885 2.86267 36.1944 3.17703 36.7837 3.80592Z" fill="black"/>
<path d="M45.4435 3.45904C46.1339 3.82918 46.7065 4.39225 47.0943 5.08229C47.4888 5.7792 47.6861 6.58093 47.6862 7.48746C47.6862 8.40534 47.4889 9.21554 47.0943 9.91809C46.7086 10.6119 46.1357 11.1783 45.4435 11.5499C44.7374 11.9352 43.9232 12.1278 43.0008 12.1278C42.067 12.1278 41.2445 11.9352 40.5331 11.5499C39.8373 11.1804 39.2612 10.6137 38.8741 9.91809C38.4793 9.21563 38.282 8.40543 38.2821 7.48746C38.2821 6.58097 38.4794 5.77923 38.8741 5.08229C39.2633 4.39052 39.8391 3.82715 40.5331 3.45904C41.2443 3.07392 42.0669 2.88126 43.0008 2.8811C43.9233 2.8811 44.7376 3.07376 45.4435 3.45904ZM41.1667 5.5327C40.6998 6.04262 40.4664 6.70554 40.4664 7.52144C40.4664 8.33734 40.6998 9.00024 41.1667 9.51013C41.6335 10.0201 42.2449 10.275 43.0008 10.275C43.7344 10.275 44.3347 10.0201 44.8016 9.51013C45.2684 9.00021 45.5018 8.33731 45.5018 7.52144C45.5018 6.70557 45.2684 6.04265 44.8016 5.5327C44.3347 5.02274 43.7344 4.76778 43.0008 4.76782C42.2447 4.76782 41.6334 5.02274 41.1667 5.5326V5.5327Z" fill="black"/>
<path d="M48.0664 2.96387H55.5029V4.42565L50.6008 10.2388L55.6363 10.2558V12.0575L47.8997 12.0406V10.5787L52.8017 4.76555L48.0664 4.74857V2.96387Z" fill="black"/>
<path fill-rule="evenodd" clip-rule="evenodd" d="M26.5256 3.09113C26.4592 3.0402 26.4172 2.92508 26.3643 2.88194C25.2325 1.95491 23.7385 1.53021 21.8923 1.9297C21.7799 2.04343 21.4704 2.14286 21.2414 2.17149C21.211 2.16099 21.1992 2.15428 21.1995 2.11671C21.1995 2.11076 21.2 2.10476 21.2003 2.09881C21.3467 1.99842 21.5576 1.92594 21.5898 1.86854C22.0203 1.696 22.483 1.6205 22.9452 1.59265C23.2374 1.57505 23.5303 1.57489 23.8228 1.57711C23.9298 1.57794 24.0373 1.57745 24.1444 1.58108C24.433 1.62754 24.719 1.68888 25.0015 1.76486C25.3545 1.87465 25.6956 2.02094 26.0195 2.20148C26.0303 2.20392 26.0402 2.20913 26.0485 2.21661L26.0518 2.21826C26.0609 2.22382 26.0704 2.2285 26.0803 2.23224C26.7807 2.55421 27.3462 3.11911 27.6763 3.82637C27.8922 3.9067 27.9376 4.28732 28.1426 4.38675C28.0917 4.08298 27.9795 3.7933 27.813 3.53603C27.2528 2.69817 26.044 1.72771 25.202 1.42571C24.8397 1.29558 24.3131 1.11582 23.9829 1.10654C23.8472 1.10257 23.7439 1.2064 23.7245 1.06833C23.6104 1.08831 23.4494 1.19138 23.4331 1.03934C23.4616 1.02581 23.492 1.01693 23.5232 1.01303C23.5469 1.0154 23.571 1.01786 23.5951 1.02052C23.6073 1.02277 23.6199 1.02008 23.6301 1.01301C23.6404 1.00594 23.6476 0.995057 23.6501 0.982691C23.6605 0.979161 23.6698 0.972656 23.6767 0.963919C23.6836 0.955183 23.6879 0.944604 23.6891 0.933435C23.6679 0.919085 23.6438 0.909618 23.6186 0.905714C23.6112 0.901706 23.6032 0.899215 23.5949 0.898371C23.5443 0.892809 23.4942 0.888218 23.4444 0.884156C23.4378 0.884804 23.4312 0.884804 23.4247 0.884156C23.4171 0.883237 23.4096 0.88222 23.4021 0.881204L23.363 0.878253C23.3591 0.878736 23.3551 0.87917 23.3511 0.879315C23.3143 0.88096 23.278 0.872837 23.2412 0.872208C23.2358 0.872093 23.2304 0.871694 23.225 0.871004C23.1183 0.867038 23.0113 0.866748 22.9016 0.871004C22.6611 0.880385 22.4157 0.876368 22.1796 0.928595C22.1779 0.929047 22.1762 0.929581 22.1745 0.930224C21.5681 0.988593 21.0142 1.29511 20.5225 1.58032C20.0297 1.8094 19.5216 2.02221 19.1184 2.40114C18.9579 2.54442 18.8224 2.71433 18.7175 2.90369C17.9218 3.95994 17.4185 5.18858 17.3519 6.67468C17.3821 7.53595 17.5562 8.55226 17.9605 9.40264C18.9147 11.324 20.6346 12.4451 22.5109 12.6847C22.7483 12.7132 22.9877 12.7206 23.2264 12.7068C23.9372 12.6536 25.0144 12.5626 25.4849 11.9832C25.8341 11.8177 26.1526 11.6343 26.273 11.3344C26.1903 11.3818 26.1907 11.282 26.1471 11.2604C26.1873 10.9858 26.6404 10.8127 26.5684 10.5666C26.4309 10.5851 26.0514 10.8456 25.8996 10.8575C25.8694 10.6838 26.0461 10.6592 25.9944 10.542C25.8948 10.5369 25.7018 10.6958 25.6787 10.5557C25.8321 10.4179 25.9104 10.2358 26.0119 10.0673C25.1323 10.3467 23.8138 11.0299 22.8146 10.8659C22.7152 10.8929 22.6159 10.9199 22.5167 10.947C21.3355 10.6771 20.3985 9.97564 19.7223 8.81436C19.6793 8.68456 19.6617 8.58639 19.6033 8.44775C19.4723 8.35147 19.6976 8.22776 19.5209 8.18206C19.0452 6.31242 19.4503 4.92755 20.3317 3.85839C20.7115 3.48502 21.1596 3.19143 21.6505 2.99436C22.6048 2.61196 23.6486 2.52522 24.651 2.74499C25.6965 3.16518 26.3638 3.70842 26.9367 4.74126C26.9349 4.75473 26.938 4.7684 26.9454 4.77971C27.0677 4.97967 27.198 5.17723 27.2759 5.40074C27.2784 5.40828 27.2823 5.41525 27.2874 5.42123C27.2925 5.42722 27.2988 5.43209 27.3058 5.43559C27.3138 5.45038 27.3267 5.46176 27.3423 5.46766C27.3578 5.47356 27.3749 5.47359 27.3905 5.46775C27.4714 5.44526 27.4683 5.34066 27.4613 5.27252C27.4371 5.03711 27.2937 4.79117 27.1853 4.58608C27.1518 4.52254 27.1163 4.46022 27.079 4.3991C27.0756 4.38401 27.0722 4.3689 27.0687 4.35378C27.0444 4.32209 27.0185 4.2917 26.991 4.26276C26.9285 4.17098 26.8606 4.08313 26.7877 3.99969C26.7695 3.96521 26.7604 3.92651 26.7613 3.88736C26.7786 3.87596 26.7989 3.87025 26.8195 3.87105C26.8392 3.87823 26.858 3.88784 26.8754 3.89964C27.0156 4.05439 27.1151 4.28096 27.2487 4.44745C27.3009 4.55616 27.3532 4.66487 27.4056 4.77361C27.4065 4.80131 27.4131 4.82849 27.4251 4.85338C27.437 4.87826 27.454 4.90029 27.475 4.91798C27.4896 4.94851 27.5043 4.979 27.519 5.0095C27.6255 5.23098 27.7345 5.45283 27.7889 5.69476C27.8355 5.92427 27.8624 6.15744 27.8696 6.39169C27.8718 6.43676 27.8715 6.48155 27.8696 6.52623C27.8754 6.54307 27.8783 6.56083 27.8782 6.5787C27.8787 6.76687 27.8677 6.9549 27.8454 7.14169C27.8545 7.15154 27.8662 7.15834 27.8792 7.16124C27.8921 7.16414 27.9056 7.163 27.9179 7.15794C27.9337 7.18821 27.9511 7.22042 27.971 7.25465C28.0309 7.02384 27.9895 6.73305 28.059 6.50751C28.0152 5.60562 27.6835 4.55892 27.3048 4.03641C27.024 3.64659 26.8247 3.31856 26.5256 3.09113ZM21.3044 1.41667C21.3364 1.40436 21.3674 1.38973 21.3974 1.37286C21.526 1.32368 21.6397 1.24109 21.7737 1.20463C21.8203 1.19196 21.8672 1.18044 21.9144 1.16951C22.0287 1.14414 22.1443 1.12534 22.2607 1.11322C22.2715 1.11218 22.2818 1.10825 22.2907 1.10182C22.4579 1.06642 23.1395 0.932895 23.4 1.04862C22.5775 1.20723 22.41 1.18016 22.2543 1.19941C22.2004 1.20908 22.1588 1.21747 22.1719 1.21433C21.9555 1.26646 21.7402 1.38557 21.5593 1.39577C21.528 1.39765 21.4264 1.46144 21.3614 1.48741C21.2288 1.54002 20.9829 1.58989 20.8234 1.64217C20.7995 1.46643 21.1079 1.46802 21.3044 1.41667Z" fill="black"/>
<path fill-rule="evenodd" clip-rule="evenodd" d="M27.8789 7.3147C27.8209 7.31426 27.8732 7.51327 27.9232 7.48352C27.9698 7.4665 28.0111 7.2615 27.8789 7.3147Z" fill="black"/>
<path fill-rule="evenodd" clip-rule="evenodd" d="M28.1693 4.48845C28.2136 4.55838 28.1788 4.76807 28.2974 4.70661C28.3646 4.63242 28.2627 4.4428 28.1693 4.48845Z" fill="black"/>
<path fill-rule="evenodd" clip-rule="evenodd" d="M27.9248 7.59404C27.9258 7.58008 27.9226 7.56613 27.9154 7.55416C27.9083 7.54218 27.8977 7.5328 27.8851 7.52731C27.8761 7.52386 27.8665 7.52255 27.857 7.52348C27.8476 7.52441 27.8384 7.52756 27.8303 7.53267C27.8222 7.53778 27.8153 7.54473 27.8102 7.55298C27.8052 7.56122 27.802 7.57052 27.801 7.5802C27.8009 7.58484 27.8018 7.58947 27.8037 7.59371C27.803 7.59841 27.8035 7.60318 27.8052 7.60762C27.8121 7.62548 27.8189 7.64336 27.8257 7.66122C27.8273 7.66515 27.8293 7.66887 27.8318 7.67229C27.8405 7.69647 27.8528 7.71483 27.8758 7.71411C27.8758 7.68886 27.8951 7.67475 27.9106 7.65845C27.9125 7.65675 27.9142 7.65484 27.9157 7.65279C27.9229 7.64513 27.9277 7.63539 27.9293 7.62488C27.9309 7.61436 27.9293 7.6036 27.9248 7.59404Z" fill="black"/>
<path fill-rule="evenodd" clip-rule="evenodd" d="M27.802 8.26628C27.8007 8.22276 27.7641 8.15927 27.7144 8.1744C27.7089 8.17589 27.7039 8.17877 27.6998 8.18278C27.6957 8.1868 27.6926 8.19183 27.691 8.19738C27.6899 8.19801 27.6888 8.19859 27.6876 8.19941C27.6883 8.20328 27.6885 8.20681 27.689 8.21048C27.6887 8.21489 27.6891 8.21932 27.6903 8.22359C27.6932 8.32209 27.5822 8.35414 27.617 8.4719C27.64 8.47655 27.664 8.47224 27.6841 8.45981C27.7075 8.4497 27.7148 8.42688 27.7259 8.40226C27.733 8.38796 27.7419 8.37466 27.7524 8.36266C27.7669 8.35119 27.7789 8.33663 27.7875 8.32C27.7961 8.30336 27.801 8.28504 27.802 8.26628Z" fill="black"/>
<path fill-rule="evenodd" clip-rule="evenodd" d="M27.7857 7.77515C27.8411 7.91384 27.651 8.05565 27.7748 8.14003C27.7878 8.05008 27.9805 7.80107 27.7857 7.77515Z" fill="black"/>
<path d="M23.8888 7.75534L23.888 7.75391C23.8788 7.75902 23.8693 7.7639 23.8597 7.76902C23.8619 7.76881 23.864 7.76849 23.8661 7.76805C23.8695 7.76757 23.8729 7.76656 23.8763 7.76584L23.8817 7.76437C23.8872 7.76264 23.8926 7.76061 23.8978 7.75829C23.8966 7.75717 23.8952 7.75633 23.8936 7.75582C23.8921 7.75531 23.8904 7.75514 23.8888 7.75534Z" fill="black"/>
<path d="M22.8951 5.66794C22.849 5.6916 22.8045 5.71826 22.7619 5.74778C22.741 5.76229 22.7206 5.77733 22.701 5.793C22.701 5.79372 22.701 5.79444 22.701 5.79522C22.6986 5.79739 22.6962 5.79957 22.6933 5.80204C22.6942 5.8039 22.6945 5.80599 22.6942 5.80804C22.6939 5.81009 22.693 5.81198 22.6916 5.81349C22.6545 5.85334 22.6176 5.89291 22.5819 5.93396C22.5588 5.96301 22.5393 5.99484 22.5239 6.02874C22.5239 6.02877 22.5239 6.0288 22.5239 6.02884C22.524 6.02888 22.524 6.02893 22.524 6.02898C22.524 6.02903 22.524 6.02908 22.5239 6.02912C22.5239 6.02916 22.5239 6.02919 22.5239 6.02922V6.02948H22.5236C22.5222 6.03243 22.5208 6.03508 22.5193 6.03779C22.5178 6.0417 22.516 6.04552 22.514 6.04924C22.5138 6.04924 22.5136 6.04924 22.5131 6.04924L22.5129 6.04948C22.5139 6.05141 22.5144 6.05365 22.5143 6.05587C22.5141 6.0581 22.5133 6.06023 22.5119 6.06197C22.5072 6.06806 22.5028 6.07438 22.4985 6.08076C22.4978 6.08221 22.4975 6.08344 22.4968 6.08494C22.4973 6.08567 22.4973 6.08591 22.4963 6.08591C22.4885 6.10194 22.479 6.11701 22.4679 6.13087L22.4646 6.13691C22.464 6.13752 22.4632 6.13795 22.4624 6.13816C22.4622 6.13842 22.4621 6.13867 22.4619 6.1389C22.463 6.14164 22.463 6.14473 22.4619 6.14747C22.4558 6.16359 22.4484 6.17918 22.4399 6.19413C22.4341 6.20486 22.4327 6.20999 22.4291 6.21734C22.4291 6.219 22.4288 6.22066 22.4281 6.22218C22.4234 6.23461 22.4186 6.24732 22.4139 6.25956C22.4139 6.26343 22.4129 6.2671 22.4108 6.26782C22.4103 6.26932 22.4096 6.27079 22.4091 6.27224C22.4092 6.27264 22.4092 6.27305 22.4091 6.27344C22.4089 6.27384 22.4087 6.2742 22.4084 6.27446C22.4021 6.28983 22.3964 6.30522 22.3906 6.32064C22.3834 6.34337 22.3783 6.36675 22.3753 6.39046C22.3666 6.41882 22.3605 6.44796 22.3571 6.4775C22.3561 6.48287 22.3524 6.48873 22.3509 6.49434C22.3478 6.50802 22.3456 6.52819 22.3437 6.54076C22.3439 6.54096 22.3441 6.54123 22.3443 6.54154C22.3444 6.54184 22.3444 6.54218 22.3444 6.54251C22.3444 6.54352 22.3437 6.54425 22.3434 6.54425C22.3427 6.54962 22.3417 6.55497 22.3413 6.56033C22.3407 6.56794 22.3412 6.5756 22.3427 6.58307C22.3415 6.58065 22.3408 6.58037 22.3405 6.58163V6.58482C22.341 6.58917 22.3422 6.59555 22.341 6.59502H22.3408V6.59748C22.3412 6.59905 22.3414 6.60069 22.3413 6.60232V6.60328C22.3413 6.60328 22.3413 6.60382 22.3413 6.60402C22.3413 6.60721 22.3413 6.61039 22.3413 6.6133C22.3414 6.61385 22.3414 6.61444 22.3413 6.615C22.3414 6.61672 22.3414 6.61844 22.3413 6.62017C22.3412 6.62058 22.3413 6.62099 22.3415 6.62137C22.3416 6.62175 22.3419 6.62208 22.3422 6.62234C22.3422 6.62307 22.3415 6.62402 22.3413 6.6248C22.3413 6.63481 22.3413 6.64507 22.342 6.65533C22.3429 6.65687 22.3434 6.65864 22.3434 6.66045C22.3437 6.66461 22.3442 6.66901 22.3444 6.67341C22.3444 6.67338 22.3445 6.67336 22.3445 6.67334C22.3445 6.67333 22.3446 6.6733 22.3446 6.6733C22.3447 6.6733 22.3447 6.67333 22.3448 6.67334C22.3448 6.67336 22.3448 6.67338 22.3449 6.67341C22.3444 6.6739 22.3446 6.67436 22.3444 6.67514C22.3552 6.79366 22.3801 6.91039 22.4187 7.02274C22.4195 7.02357 22.4202 7.02458 22.4206 7.02569C22.4275 7.04643 22.4345 7.06599 22.4422 7.08529C22.4431 7.08746 22.4441 7.08944 22.4451 7.09162V7.09239C22.4513 7.1069 22.458 7.12139 22.4654 7.13532C22.4678 7.13628 22.4698 7.13797 22.4711 7.14016C22.4795 7.15651 22.4884 7.17266 22.4973 7.18852C22.4994 7.18952 22.5011 7.19124 22.502 7.19336C22.5254 7.23977 22.5524 7.28421 22.5827 7.32625C22.6042 7.3573 22.6181 7.39245 22.6371 7.42519C22.6608 7.45232 22.6862 7.47838 22.7121 7.50285C22.7157 7.50628 22.7152 7.5073 22.7178 7.50996C22.7396 7.53022 22.7645 7.54488 22.783 7.56491C22.8065 7.57941 22.8367 7.60154 22.8523 7.61402C22.8827 7.63504 22.9146 7.65389 22.9477 7.67045C22.9542 7.67226 22.9604 7.67517 22.9661 7.67902C22.9742 7.68324 22.9822 7.68789 22.9898 7.69296L22.9989 7.6978L23.0265 7.71152C23.038 7.71712 23.0493 7.72274 23.0612 7.72738C23.0611 7.7272 23.061 7.72698 23.061 7.72677C23.061 7.72655 23.0611 7.72636 23.0612 7.72618C23.0621 7.72614 23.063 7.72629 23.0639 7.72665H23.0646C23.0661 7.72745 23.0675 7.72835 23.0689 7.72932L23.0694 7.72984L23.0696 7.73033V7.73107C23.0696 7.73107 23.0696 7.73153 23.0703 7.73177C23.0735 7.73052 23.0816 7.73468 23.0862 7.7386C23.1087 7.74861 23.1319 7.75793 23.1544 7.7662C23.1561 7.76662 23.1577 7.76719 23.1592 7.7679C23.1841 7.77549 23.2088 7.78284 23.2339 7.78918H23.2347C23.2361 7.78918 23.2375 7.78919 23.2394 7.78967L23.2404 7.79015C23.2409 7.79015 23.2411 7.79063 23.2413 7.79092C23.2698 7.79798 23.2983 7.80407 23.3272 7.80944C23.3294 7.80975 23.3316 7.80993 23.3338 7.80993C23.3331 7.81017 23.3331 7.8104 23.3326 7.8104C23.3384 7.81142 23.3441 7.81287 23.3499 7.81359C23.3511 7.81385 23.3524 7.81402 23.3537 7.81409H23.3547C23.2479 7.78831 23.1435 7.75317 23.0427 7.70906C23.0406 7.7082 23.039 7.70663 23.0379 7.70464H23.0377C23.0367 7.70243 23.0363 7.69997 23.0367 7.69756C23.0371 7.69515 23.0382 7.69291 23.0399 7.69116C23.0416 7.68941 23.0437 7.68823 23.0461 7.68776C23.0484 7.68729 23.0509 7.68756 23.0531 7.68854C23.1858 7.74803 23.3255 7.78966 23.4688 7.81239C23.475 7.81239 23.4815 7.81288 23.4878 7.81288C23.4899 7.81219 23.4923 7.81201 23.4945 7.81239C23.4945 7.81242 23.4946 7.81246 23.4946 7.81251C23.4946 7.81255 23.4946 7.8126 23.4946 7.81265C23.4946 7.81269 23.4946 7.81272 23.4946 7.81277C23.4946 7.81281 23.4945 7.81285 23.4945 7.81288C23.5474 7.81361 23.6004 7.81337 23.6531 7.81288C23.6548 7.81288 23.6565 7.81287 23.6584 7.81239C23.6584 7.81263 23.6584 7.81264 23.6579 7.81288C23.6597 7.81288 23.6616 7.81329 23.6632 7.81409C23.68 7.8136 23.698 7.80968 23.7121 7.80847C23.7204 7.80774 23.7224 7.81042 23.7269 7.80578C23.7288 7.80728 23.7353 7.8063 23.7387 7.80698C23.7401 7.80698 23.7413 7.80697 23.7425 7.80653C23.7554 7.80101 23.7693 7.79811 23.7833 7.79798V7.79846L23.7861 7.79775C23.7899 7.79662 23.794 7.79644 23.7979 7.79725C23.7993 7.79774 23.7988 7.79871 23.7972 7.79992C23.7953 7.80072 23.7933 7.80098 23.7914 7.80065C23.7898 7.80018 23.7881 7.80028 23.7866 7.80094C23.7777 7.80568 23.7676 7.80778 23.7576 7.80698C23.7583 7.80993 23.7528 7.80968 23.743 7.81017C23.7411 7.81017 23.7389 7.81066 23.7368 7.8109V7.81118C23.73 7.81215 23.7109 7.81775 23.7099 7.81456C23.7099 7.81533 23.7087 7.81603 23.707 7.8168C23.708 7.8168 23.7087 7.81679 23.7092 7.81751V7.81777C23.7097 7.81749 23.7103 7.81732 23.7109 7.81728C23.7126 7.81709 23.7143 7.81675 23.7159 7.81626L23.7188 7.81584C23.7217 7.81535 23.7243 7.81506 23.7269 7.81482V7.81432C23.7429 7.81155 23.759 7.80959 23.7751 7.80847C23.7945 7.80582 23.8136 7.80208 23.8326 7.79725C23.8508 7.79188 23.87 7.78598 23.893 7.7782C23.8941 7.77766 23.8952 7.77725 23.8964 7.77695C23.9079 7.77285 23.9192 7.76839 23.9301 7.76356L23.9321 7.76157C23.9388 7.75862 23.9463 7.75595 23.9541 7.753C23.9675 7.74667 23.9807 7.74034 23.9936 7.73366C23.9936 7.73366 23.9941 7.73294 23.9936 7.7327C23.9946 7.73209 23.9957 7.73183 23.9968 7.73196C23.9999 7.73051 24.0028 7.72902 24.0063 7.72757C24.0063 7.72685 24.0067 7.72636 24.0079 7.72564C24.0199 7.71901 24.0323 7.71243 24.0443 7.7058L24.0451 7.70727C24.0561 7.70581 24.065 7.72178 24.0535 7.7283C24.0096 7.75332 23.9641 7.77534 23.9174 7.79425C23.9168 7.79577 23.9158 7.79713 23.9145 7.79815C23.9132 7.79917 23.9118 7.79984 23.9102 7.80011C23.8874 7.80661 23.8653 7.81538 23.8443 7.82627C23.8343 7.83078 23.8238 7.83404 23.8131 7.83595C23.811 7.83644 23.809 7.83668 23.8069 7.83692C23.7713 7.84318 23.7354 7.84748 23.6993 7.84986C23.6663 7.85909 23.6324 7.86434 23.5982 7.86549C23.5447 7.88165 23.4886 7.88657 23.4333 7.87999C23.3697 7.88442 23.3059 7.87749 23.2447 7.8595H23.2418C23.2371 7.8595 23.2323 7.85951 23.2281 7.85902C23.2242 7.86347 23.2191 7.86657 23.2134 7.86792C23.2077 7.86927 23.2017 7.86879 23.1963 7.86656C23.1845 7.8624 23.1725 7.85799 23.1608 7.85364C23.0815 7.83413 23.0045 7.80553 22.9315 7.76835C22.9234 7.76497 22.9157 7.76105 22.9078 7.75737C22.8857 7.74898 22.8642 7.73929 22.8433 7.72835C22.8433 7.72835 22.8433 7.72907 22.8426 7.72956C22.8416 7.72857 22.8406 7.72753 22.8397 7.72641C22.825 7.71833 22.8108 7.70942 22.797 7.69976C22.796 7.69944 22.7951 7.69887 22.7944 7.69808L22.7932 7.6973C22.7786 7.68674 22.7646 7.67517 22.7515 7.66264C22.74 7.65408 22.7285 7.6458 22.7168 7.63699L22.7144 7.63525C22.7138 7.63518 22.7132 7.63503 22.7127 7.63477C22.7123 7.63438 22.7119 7.63389 22.7117 7.63333C22.694 7.62013 22.6765 7.6062 22.66 7.5913C22.6066 7.5374 22.5564 7.48021 22.5098 7.42007C22.4257 7.31248 22.3652 7.18778 22.3324 7.05438C22.3317 7.05286 22.3315 7.05119 22.3317 7.04954C22.3262 7.03503 22.3209 7.0197 22.3175 7.00824C22.3098 6.9843 22.3067 6.95597 22.2978 6.92517C22.294 6.9125 22.2894 6.89315 22.2858 6.87414C22.2822 6.85514 22.2793 6.83677 22.2784 6.8255C22.2753 6.79692 22.271 6.76518 22.2702 6.74047C22.2695 6.72659 22.2703 6.69899 22.2707 6.69899C22.2707 6.69067 22.2695 6.69261 22.2693 6.68066C22.2702 6.67851 22.2709 6.67628 22.2714 6.67403C22.2719 6.66818 22.2693 6.65891 22.2693 6.65209C22.2693 6.6357 22.271 6.6237 22.2717 6.61103C22.2729 6.58269 22.2724 6.54457 22.2764 6.51599C22.2774 6.48156 22.2791 6.44685 22.2824 6.41266C22.2159 6.63641 22.2131 6.87479 22.2742 7.10012C22.3354 7.32544 22.458 7.52845 22.6278 7.68557C22.7976 7.84268 23.0077 7.94744 23.2336 7.98766C23.4595 8.02789 23.692 8.00195 23.904 7.91284C23.9325 7.90084 23.9609 7.8877 23.9891 7.87328C24.0231 7.85542 24.056 7.83635 24.0878 7.81607C24.089 7.81515 24.0904 7.8139 24.0919 7.8127C24.0912 7.81124 24.0907 7.80949 24.0934 7.81123C24.0948 7.80973 24.096 7.80828 24.0974 7.80639C24.1222 7.79068 24.1456 7.77269 24.1672 7.75262C24.1712 7.74919 24.1779 7.74726 24.1827 7.74358C24.195 7.73454 24.2115 7.71891 24.2207 7.71083C24.2378 7.69612 24.2542 7.68055 24.2698 7.66417C24.2698 7.66374 24.2705 7.6632 24.271 7.66247C24.2712 7.66247 24.2712 7.66247 24.2717 7.66247C24.2722 7.66247 24.2722 7.66177 24.2724 7.66153C24.2772 7.65616 24.2819 7.65025 24.2867 7.64464C24.312 7.60395 24.3397 7.56479 24.3696 7.52741C24.3789 7.51054 24.3894 7.4943 24.4007 7.47877C24.4017 7.47758 24.4029 7.47653 24.4041 7.47563C24.4481 7.3984 24.4824 7.31583 24.5062 7.22987C24.5066 7.22815 24.5075 7.22661 24.5088 7.22547C24.5179 7.1893 24.5263 7.15292 24.5338 7.11627C24.5325 7.11549 24.533 7.11477 24.534 7.11428C24.5364 7.10181 24.5387 7.08962 24.5412 7.0769C24.5443 7.04832 24.5469 7.01974 24.5488 6.9914C24.5484 6.93033 24.5462 6.86902 24.5431 6.80765C24.5414 6.77714 24.5402 6.74634 24.5384 6.71577V6.71528V6.71481C24.5383 6.71441 24.5383 6.714 24.5384 6.7136C24.536 6.65975 24.5307 6.60607 24.5223 6.55285C24.5213 6.54869 24.5206 6.54478 24.5199 6.54062C24.5091 6.50469 24.4964 6.46929 24.4825 6.43486C24.4816 6.43197 24.4808 6.42902 24.4801 6.42605C24.4689 6.39892 24.4525 6.37548 24.4442 6.34985C24.4293 6.32688 24.4109 6.29487 24.4022 6.27731C24.385 6.24894 24.3662 6.2216 24.3459 6.19547C24.3375 6.18764 24.3291 6.17986 24.3205 6.17179C24.3189 6.17216 24.3172 6.17207 24.3156 6.17155C24.314 6.17103 24.3126 6.17011 24.3114 6.16884C24.2625 6.12149 24.2137 6.07452 24.1633 6.02936C24.1625 6.02901 24.1618 6.02853 24.1612 6.02792C24.1604 6.02714 24.1597 6.02633 24.159 6.02546C24.0862 5.95928 24.0073 5.90037 23.9234 5.84957L23.9134 5.84518C23.8894 5.83753 23.8669 5.82563 23.847 5.81002C23.8462 5.8091 23.8456 5.80811 23.845 5.80707C23.8412 5.80436 23.8374 5.8017 23.8335 5.79923C23.8318 5.79826 23.8302 5.79779 23.8285 5.79682C23.8273 5.79787 23.8257 5.79852 23.8241 5.79869C23.8225 5.79886 23.8209 5.79855 23.8194 5.79779C23.8055 5.79121 23.791 5.78531 23.7767 5.7797C23.7681 5.77656 23.759 5.77337 23.7506 5.76969C23.7502 5.76947 23.7498 5.76929 23.7494 5.76919C23.699 5.75087 23.647 5.7377 23.5941 5.72988C23.5913 5.72948 23.5887 5.72799 23.5869 5.72572C23.5603 5.72229 23.5339 5.71836 23.5073 5.71604C23.5006 5.7158 23.4939 5.71581 23.4872 5.71557C23.4805 5.71533 23.473 5.71604 23.4661 5.71604C23.445 5.71725 23.424 5.71924 23.4031 5.72088C23.4014 5.72094 23.3998 5.72059 23.3984 5.71987C23.3519 5.72354 23.3054 5.72873 23.2591 5.73439C23.2849 5.73725 23.3109 5.73758 23.3368 5.73536C23.3389 5.73536 23.3404 5.73584 23.3404 5.73656C23.3404 5.73729 23.3389 5.73824 23.337 5.73824H23.3368C23.307 5.7411 23.277 5.74047 23.2474 5.73633C23.2368 5.73778 23.2325 5.73512 23.2229 5.73633C23.2191 5.73483 23.2177 5.73337 23.2174 5.73149C23.214 5.73216 23.2104 5.73256 23.2069 5.73269C23.2069 5.73269 23.2062 5.73268 23.2059 5.73316C23.2038 5.73414 23.2015 5.73442 23.1992 5.73394L23.1976 5.73463L23.1971 5.73491L23.1961 5.73515C23.1906 5.73611 23.1863 5.7349 23.186 5.73316V5.73269L23.1872 5.73219V5.73196H23.186C23.2207 5.71506 23.2584 5.70567 23.2967 5.70435C23.3075 5.70266 23.3181 5.70144 23.3288 5.70072C23.3288 5.70043 23.3293 5.70072 23.3298 5.70072C23.3303 5.70072 23.3318 5.70018 23.3325 5.69994C23.3337 5.69931 23.3351 5.69907 23.3365 5.69923C23.3378 5.69935 23.3391 5.69935 23.3404 5.69923C23.3409 5.69918 23.3414 5.699 23.3418 5.69874H23.3421C23.3427 5.69887 23.3433 5.69887 23.344 5.69874C23.3468 5.69874 23.3494 5.69826 23.3521 5.69826C23.3526 5.69826 23.3535 5.69826 23.355 5.69826C23.3679 5.69778 23.3808 5.69682 23.3938 5.69604H23.3972C23.4144 5.69483 23.4319 5.69409 23.4493 5.69361C23.4661 5.69361 23.4826 5.69362 23.4992 5.69434H23.5294C23.5378 5.69434 23.5462 5.69482 23.5546 5.69555C23.5978 5.69829 23.6408 5.70336 23.6834 5.71073C23.718 5.71201 23.7519 5.72127 23.7824 5.73781C23.7848 5.73854 23.7875 5.73902 23.7896 5.7398C23.8095 5.74413 23.8292 5.74951 23.8486 5.7559C23.8715 5.7621 23.8941 5.76978 23.9161 5.77888C23.9488 5.79213 23.9806 5.80746 24.0113 5.8248C24.0536 5.84687 24.0939 5.87277 24.1316 5.90218C24.1747 5.92752 24.2159 5.95602 24.2549 5.98745C24.2625 5.99299 24.2698 5.99895 24.2767 6.0053C24.283 6.01112 24.289 6.01739 24.2944 6.02409C24.3289 6.05949 24.3582 6.09982 24.3893 6.13816C24.3894 6.1383 24.3896 6.13841 24.3898 6.13842C24.4085 6.1547 24.4262 6.17206 24.4428 6.19044C24.4428 6.19068 24.4432 6.19069 24.4435 6.19117C24.4441 6.19205 24.4449 6.19289 24.4457 6.19365C24.4461 6.19453 24.4468 6.19527 24.4476 6.19583C24.4476 6.19631 24.4476 6.19629 24.4478 6.19653C24.5338 6.29853 24.5935 6.42077 24.6216 6.55221C24.6254 6.56469 24.6287 6.57743 24.6326 6.58961C24.6335 6.59184 24.634 6.59377 24.6347 6.59575C24.6383 6.60721 24.6421 6.61847 24.6462 6.62959C24.6238 6.4318 24.5549 6.24245 24.4453 6.07765C24.3357 5.91285 24.1887 5.77749 24.0167 5.68306C23.8448 5.58862 23.653 5.53791 23.4577 5.53527C23.2624 5.53262 23.0693 5.57811 22.895 5.66785L22.8951 5.66794Z" fill="black"/>
<path d="M27.0849 6.28572C27.0538 6.10347 27.0113 5.92348 26.9574 5.74684C26.88 5.4886 26.7999 5.23162 26.7206 4.97416C26.7161 4.95971 26.7087 4.94638 26.6988 4.93504C26.6718 4.90283 26.643 4.87216 26.6147 4.84073C26.5666 4.79205 26.5333 4.73021 26.5189 4.66267C26.5112 4.61766 26.49 4.57621 26.4583 4.54397C26.4532 4.53836 26.4488 4.5322 26.444 4.52635C26.2674 4.30484 26.0741 4.09763 25.866 3.90659C25.6463 3.70369 25.3971 3.53666 25.1273 3.41144C25.1127 3.40481 25.0988 3.39694 25.0846 3.38896C24.8389 3.25206 24.5803 3.14084 24.3127 3.05699C24.1158 2.99111 23.9131 2.94496 23.7074 2.91921C23.5275 2.90032 23.346 2.90632 23.1677 2.93701C22.9204 2.9795 22.6753 3.033 22.4325 3.09751C22.208 3.15215 21.9895 3.22982 21.7804 3.32934C21.6263 3.40671 21.4749 3.49008 21.325 3.57597C20.9285 3.80371 20.5906 4.1241 20.3392 4.51084C20.2823 4.59701 20.2315 4.6855 20.1836 4.77525C19.9581 5.16197 19.8024 5.58679 19.724 6.02952C19.6926 6.19515 19.6723 6.36246 19.6572 6.53056C19.6443 6.67822 19.6456 6.82683 19.6613 6.97422C19.681 7.15483 19.7113 7.33408 19.7521 7.511C19.7969 7.71256 19.8443 7.91357 19.8906 8.11489C19.8923 8.12219 19.8966 8.13076 19.8947 8.13685C19.891 8.15496 19.8934 8.17379 19.9014 8.19038C19.9294 8.28747 19.9644 8.38226 20.0063 8.47399C20.0558 8.59004 20.1211 8.69844 20.2002 8.79597C20.2419 8.8453 20.2819 8.89636 20.3219 8.94718C20.3469 8.97842 20.3709 9.01069 20.395 9.04246C20.4295 9.0869 20.4662 9.12949 20.4978 9.17606C20.7129 9.49061 20.9855 9.75991 21.3006 9.96916C21.775 10.2858 22.3003 10.4594 22.8583 10.539C22.9555 10.553 23.0533 10.5618 23.1508 10.5745C23.3325 10.596 23.5161 10.5921 23.6967 10.5628C23.8069 10.5462 23.9136 10.5151 24.0216 10.4885C24.2654 10.4284 24.5098 10.3708 24.754 10.3128C24.8247 10.3054 24.8905 10.2721 24.939 10.2191C25.0083 10.155 25.0959 10.1151 25.1889 10.1049C25.2025 10.1031 25.2154 10.0977 25.2263 10.0893C25.3224 10.0185 25.4187 9.94762 25.5132 9.87509C25.5951 9.81222 25.6739 9.74491 25.7561 9.68257C25.8909 9.58076 26.0174 9.46785 26.1341 9.34499C26.3198 9.14679 26.4782 8.9238 26.605 8.68213C26.6921 8.53539 26.7677 8.38187 26.8312 8.22301C27.0205 7.74784 27.1024 7.25145 27.1151 6.68005C27.1169 6.54795 27.1068 6.41594 27.0849 6.28572ZM25.0777 7.99234C24.9936 8.69078 24.8664 9.28836 24.8608 9.31346L24.8143 9.53063L24.6459 9.45443L24.615 9.4405C24.5919 9.43 24.0451 9.18153 23.4436 8.83755C22.6142 8.36315 22.1086 7.95032 21.9402 7.6105L21.9263 7.5829C21.9128 7.55824 21.9057 7.54285 21.8978 7.5267C21.8935 7.51742 21.8883 7.50669 21.881 7.49204C21.4926 6.70911 21.7773 5.75112 22.5119 5.27721C22.5599 5.24616 22.6099 5.2171 22.6617 5.1905C22.9067 5.06394 23.1774 4.99769 23.452 4.99707C23.7595 4.99358 24.0618 5.07759 24.325 5.23964C24.5883 5.40168 24.802 5.63536 24.9421 5.91439C24.9524 5.9347 24.9608 5.95231 24.9692 5.96962C24.9773 5.98621 24.9854 6.00284 24.9952 6.02213L24.9989 6.02901L25.0008 6.03316C25.1681 6.37027 25.1942 7.02957 25.0777 7.99234Z" fill="black"/>
<path d="M23.8354 7.82185L23.8346 7.82041C23.8255 7.82553 23.8162 7.83042 23.8068 7.83554C23.809 7.8353 23.8109 7.83506 23.813 7.83457C23.8164 7.83409 23.8198 7.83306 23.8231 7.83233L23.8284 7.83089C23.8338 7.82915 23.8391 7.82711 23.8442 7.8248C23.8431 7.82367 23.8416 7.82283 23.8401 7.82232C23.8386 7.82181 23.837 7.82164 23.8354 7.82185ZM24.612 9.43857C24.589 9.42808 24.0422 9.1796 23.4407 8.83563C22.6113 8.36123 22.1056 7.94839 21.9372 7.60858L21.9233 7.58097C21.9099 7.55631 21.9027 7.54093 21.8948 7.52478C21.8905 7.51549 21.8853 7.50477 21.878 7.49011C21.7634 7.25958 21.7038 7.0047 21.7041 6.74625C21.7041 6.7167 21.7048 6.68711 21.7065 6.65756C21.7065 6.65461 21.7065 6.65172 21.707 6.64878C21.707 6.64341 21.7075 6.63828 21.7079 6.63291C21.7091 6.61603 21.7103 6.59906 21.712 6.58233C21.7137 6.5656 21.7156 6.54813 21.7178 6.53126C21.7194 6.5181 21.7211 6.50514 21.7233 6.49218C21.7233 6.48874 21.7242 6.48536 21.7247 6.48193C21.7259 6.47458 21.7271 6.46742 21.7283 6.45969C21.7324 6.43551 21.7372 6.41084 21.7425 6.38642C21.7437 6.37955 21.7454 6.37298 21.7468 6.36611C21.7469 6.36552 21.7471 6.36494 21.7473 6.36441C21.7507 6.34955 21.7543 6.33466 21.7581 6.31973C21.7622 6.30334 21.7667 6.28699 21.7713 6.2706C21.7719 6.26868 21.7725 6.26674 21.773 6.26476C21.7777 6.24842 21.7825 6.23225 21.7878 6.21615C21.7993 6.18068 21.8118 6.14575 21.8252 6.11135C21.8314 6.09569 21.8377 6.08008 21.8442 6.06446C21.8512 6.04782 21.8584 6.03148 21.8662 6.01509C21.8732 5.99971 21.8805 5.98432 21.8883 5.96918C21.8911 5.96304 21.8943 5.95719 21.8974 5.9511C21.9029 5.94007 21.9086 5.9291 21.9146 5.91837C21.9228 5.90296 21.9312 5.88781 21.9398 5.87291C21.9403 5.87232 21.9407 5.87167 21.941 5.87098C21.9501 5.85531 21.9594 5.83967 21.969 5.8243C21.9695 5.82357 21.97 5.82261 21.9705 5.82184C21.9796 5.80733 21.9889 5.79282 21.9985 5.77861C22.0086 5.76347 22.0189 5.74857 22.0294 5.73367C22.0399 5.71878 22.0508 5.70409 22.0618 5.68968C22.0728 5.67527 22.0841 5.66066 22.0955 5.64645C22.1059 5.63378 22.1164 5.62105 22.1269 5.60834C22.1301 5.60495 22.1329 5.60152 22.136 5.59809C22.1461 5.58638 22.1566 5.57463 22.1672 5.56316C22.1681 5.56233 22.1689 5.56142 22.1696 5.56045C22.1814 5.54773 22.1933 5.53531 22.2051 5.52307L22.2113 5.51674C22.2223 5.50577 22.2333 5.49475 22.2445 5.48402C22.2577 5.4713 22.2713 5.45862 22.2852 5.44614C22.2991 5.43366 22.3131 5.42149 22.3272 5.40949C22.3413 5.3975 22.3556 5.3858 22.3699 5.37434C22.3699 5.37434 22.3699 5.37408 22.3703 5.37408C22.385 5.36232 22.4001 5.35087 22.4151 5.3396C22.4164 5.33881 22.4176 5.33794 22.4187 5.33696C22.4326 5.3267 22.4468 5.31667 22.4611 5.30661C22.4755 5.29656 22.4918 5.28589 22.5074 5.27563C22.4873 5.28468 22.4679 5.29445 22.4482 5.30465C21.6042 5.73949 21.2541 6.77207 21.668 7.6065C21.6754 7.62101 21.6804 7.6319 21.6847 7.64119C21.6924 7.65729 21.6996 7.67272 21.7132 7.69738L21.7271 7.72499C21.8955 8.06475 22.4012 8.47764 23.2306 8.95204C23.832 9.29601 24.3789 9.54442 24.4019 9.55491L24.6011 9.64507L24.6423 9.45284L24.612 9.43857ZM24.543 6.80632C24.5413 6.7758 24.5401 6.745 24.5383 6.71444V6.71395V6.71347C24.5382 6.71308 24.5382 6.71267 24.5383 6.71227C24.5359 6.65842 24.5306 6.60474 24.5222 6.55151C24.5212 6.54736 24.5205 6.54344 24.5198 6.53928C24.509 6.50335 24.4963 6.46795 24.4824 6.43352C24.4815 6.43063 24.4807 6.42769 24.48 6.42472C24.4688 6.39759 24.4525 6.37415 24.4441 6.34852C24.4292 6.32555 24.4108 6.29353 24.4021 6.27598C24.3849 6.2476 24.3661 6.22026 24.3458 6.19414C24.3374 6.18631 24.329 6.17853 24.3204 6.17046C24.3188 6.17083 24.3171 6.17076 24.3155 6.17024C24.3139 6.16973 24.3124 6.16877 24.3113 6.1675C24.2624 6.12011 24.2136 6.07326 24.1632 6.02805C24.1624 6.0277 24.1617 6.0272 24.161 6.02658C24.1603 6.02581 24.1596 6.025 24.1589 6.02413C24.0861 5.95796 24.0072 5.89905 23.9233 5.84824L23.9133 5.84385C23.8893 5.8362 23.8668 5.8243 23.8469 5.80869C23.8461 5.80777 23.8455 5.80678 23.8449 5.80574C23.8411 5.80303 23.8373 5.80036 23.8335 5.7979C23.8317 5.79693 23.8301 5.79646 23.8284 5.79549C23.8272 5.79654 23.8256 5.79718 23.824 5.79735C23.8224 5.79753 23.8207 5.79722 23.8193 5.79646C23.8054 5.78988 23.7908 5.78398 23.7766 5.77837C23.768 5.77523 23.7589 5.77203 23.7505 5.76836C23.9367 5.85825 24.0974 5.99501 24.2175 6.16576C24.3375 6.3365 24.4129 6.53559 24.4366 6.74426C24.4325 6.73305 24.4286 6.72184 24.425 6.71043C24.4243 6.70849 24.4238 6.70651 24.4229 6.70434C24.4191 6.6921 24.4157 6.67943 24.4118 6.66696C24.3839 6.53551 24.3242 6.41326 24.2381 6.31128C24.2379 6.31104 24.2379 6.31103 24.2379 6.31055C24.2371 6.30996 24.2364 6.30921 24.236 6.30833C24.2352 6.30758 24.2345 6.30676 24.2338 6.3059C24.2338 6.30541 24.2333 6.30543 24.2331 6.30519C24.2164 6.28681 24.1988 6.26942 24.1801 6.25315C24.18 6.25313 24.1799 6.2531 24.1799 6.25305C24.1798 6.253 24.1797 6.25294 24.1796 6.25286C24.1485 6.21452 24.1193 6.17421 24.0848 6.13877C24.0793 6.1321 24.0733 6.12583 24.067 6.11997C24.0601 6.11365 24.0528 6.1077 24.0452 6.10217C24.0062 6.07072 23.965 6.04224 23.9219 6.01693C23.8841 5.98751 23.8439 5.96161 23.8016 5.93955C23.7708 5.92225 23.739 5.90691 23.7064 5.89365C23.6844 5.88455 23.6618 5.87687 23.6389 5.87067C23.6195 5.86425 23.5998 5.85886 23.5799 5.85452C23.5778 5.85379 23.5752 5.85331 23.5727 5.85258C23.5422 5.83605 23.5083 5.82677 23.4737 5.82545C23.4228 5.81647 23.3713 5.81101 23.3197 5.80911H23.2895C23.2729 5.8081 23.2563 5.80809 23.2396 5.80833C23.2224 5.80887 23.2049 5.8096 23.1874 5.81081H23.1841C23.1711 5.81154 23.1582 5.8125 23.1452 5.81299C23.1443 5.81303 23.1433 5.81312 23.1424 5.81327C23.1397 5.81327 23.1371 5.81328 23.1342 5.81376C23.1337 5.81376 23.133 5.81376 23.1323 5.81376C23.1322 5.81364 23.1321 5.81345 23.1321 5.81327C23.1317 5.8135 23.1313 5.81368 23.1309 5.81376C23.1295 5.81388 23.1281 5.81388 23.1268 5.81376C23.1254 5.81365 23.1241 5.8138 23.1228 5.81424C23.1219 5.81465 23.121 5.81497 23.1201 5.81521C23.1196 5.81521 23.1194 5.81496 23.1191 5.81521C23.1083 5.81593 23.0978 5.81715 23.087 5.81889C23.0486 5.82019 23.0109 5.82958 22.9763 5.84649H22.9775L22.9763 5.84699L22.9766 5.84746C22.9766 5.84915 22.9813 5.85041 22.9866 5.8494H22.9876L22.9881 5.84916L22.9897 5.84843C22.992 5.84888 22.9943 5.84864 22.9964 5.84772C22.9964 5.84772 22.9971 5.84771 22.9974 5.84722C23.001 5.8471 23.0045 5.8467 23.0079 5.84602C23.0082 5.84771 23.0096 5.84917 23.0135 5.85086C23.0229 5.84984 23.0274 5.85255 23.0379 5.85086C23.0675 5.85499 23.0975 5.85564 23.1272 5.8528H23.1275C23.1294 5.8528 23.1311 5.85206 23.1311 5.8511C23.1311 5.85013 23.1294 5.84984 23.1272 5.84984C23.1014 5.85209 23.0754 5.85176 23.0497 5.84888C23.0959 5.84303 23.1424 5.83788 23.1889 5.83435C23.1904 5.83503 23.192 5.83536 23.1936 5.83532C23.2144 5.83387 23.2355 5.83193 23.2566 5.83048C23.2636 5.83048 23.2705 5.83049 23.2777 5.83001C23.2849 5.82953 23.2912 5.83024 23.2978 5.83048C23.3245 5.83271 23.3508 5.83663 23.3774 5.84016C23.3783 5.84131 23.3793 5.84226 23.3806 5.84297C23.3818 5.84369 23.3832 5.84415 23.3846 5.84432C23.4375 5.85219 23.4895 5.86536 23.5399 5.88363C23.5487 5.88755 23.5581 5.89076 23.5672 5.89419C23.5814 5.8998 23.596 5.90565 23.6099 5.91228C23.6113 5.91305 23.613 5.91335 23.6146 5.91317C23.6162 5.91299 23.6177 5.91234 23.6189 5.91126C23.6207 5.91228 23.6223 5.91275 23.624 5.91372C23.6278 5.91613 23.6316 5.91885 23.6355 5.92151C23.636 5.92255 23.6367 5.92353 23.6374 5.92446C23.6573 5.94008 23.6798 5.952 23.7038 5.95967L23.7139 5.96401C23.7977 6.01484 23.8766 6.07377 23.9494 6.13995C23.9501 6.14081 23.9508 6.1416 23.9516 6.14236C23.9522 6.14298 23.9529 6.14347 23.9537 6.1438C24.004 6.18901 24.0529 6.23569 24.1018 6.28332C24.103 6.28458 24.1044 6.28552 24.106 6.28604C24.1076 6.28656 24.1093 6.28664 24.1109 6.28628L24.1363 6.30996C24.1567 6.33607 24.1755 6.36341 24.1926 6.3918C24.2015 6.4094 24.2197 6.44137 24.2346 6.46434C24.243 6.49002 24.2592 6.51345 24.2705 6.54054C24.272 6.54421 24.271 6.54494 24.2729 6.54934C24.2868 6.58377 24.2995 6.61922 24.3103 6.65515C24.311 6.65926 24.3118 6.66318 24.3127 6.66733C24.3211 6.72056 24.3264 6.77424 24.3287 6.82809C24.3286 6.82849 24.3286 6.8289 24.3287 6.82929V6.82977V6.83031C24.3304 6.86082 24.3316 6.89162 24.3335 6.92218C24.3366 6.9835 24.3388 7.04481 24.3393 7.10594C24.3373 7.13428 24.3345 7.16286 24.3316 7.19144C24.3292 7.20416 24.3269 7.21634 24.3244 7.22882C24.3234 7.2293 24.323 7.23003 24.3244 7.23075C24.317 7.26741 24.3086 7.30384 24.2995 7.33996C24.2981 7.34111 24.2972 7.34264 24.2968 7.34435C24.2731 7.43034 24.2388 7.51291 24.1947 7.59011C24.1935 7.59105 24.1924 7.59211 24.1914 7.5933C24.18 7.60881 24.1696 7.62503 24.1602 7.6419C24.1302 7.67932 24.1023 7.71853 24.0768 7.75932C24.0721 7.76493 24.0673 7.77079 24.0626 7.77616V7.77644C24.0626 7.77644 24.0621 7.77717 24.0619 7.77741C24.0616 7.77765 24.0614 7.77741 24.0611 7.77741C24.0607 7.77794 24.0603 7.77852 24.06 7.77911C24.0444 7.79549 24.0279 7.81106 24.0108 7.82577C24.0017 7.83384 23.9852 7.84945 23.9729 7.85849C23.9681 7.86217 23.9613 7.8641 23.9573 7.86754C23.9388 7.88122 23.9225 7.89854 23.9038 7.9115C23.9168 7.90614 23.9297 7.90028 23.9426 7.89438C23.9582 7.88732 23.9736 7.87988 23.9889 7.87195C24.023 7.85409 24.0559 7.83503 24.0876 7.81479L24.0917 7.81136C24.091 7.80991 24.0905 7.80816 24.0932 7.8099C24.0946 7.8084 24.0958 7.80694 24.0972 7.80506C24.122 7.78936 24.1454 7.77137 24.167 7.75129C24.171 7.74791 24.1777 7.74592 24.1825 7.74225C24.1948 7.73321 24.2113 7.7176 24.2205 7.70952C24.2373 7.69501 24.2537 7.67947 24.2696 7.66289C24.27 7.66228 24.2704 7.66172 24.2708 7.66116C24.271 7.66116 24.2711 7.66116 24.2715 7.66116C24.272 7.66116 24.272 7.66044 24.2722 7.66019C24.277 7.65483 24.2817 7.64897 24.2865 7.64331C24.3118 7.60262 24.3395 7.56346 24.3694 7.52608C24.3788 7.50921 24.3892 7.49297 24.4006 7.47743C24.4016 7.47625 24.4027 7.4752 24.4039 7.47429C24.4479 7.39707 24.4822 7.3145 24.506 7.22853C24.5064 7.22681 24.5073 7.22527 24.5086 7.22414C24.5177 7.18797 24.5261 7.15159 24.5336 7.11493C24.5323 7.11421 24.5328 7.11343 24.5338 7.11295C24.5362 7.10052 24.5386 7.08829 24.541 7.07557C24.5441 7.04699 24.5467 7.01841 24.5486 6.99007C24.5483 6.92895 24.5461 6.86764 24.543 6.80632ZM23.8442 7.8248C23.8431 7.82367 23.8416 7.82283 23.8401 7.82232C23.8386 7.82181 23.837 7.82164 23.8354 7.82185L23.8346 7.82041C23.8255 7.82553 23.8162 7.83042 23.8068 7.83554C23.8039 7.83699 23.8013 7.83871 23.7984 7.84036C23.7972 7.84108 23.7968 7.84157 23.7968 7.84229C23.7934 7.84379 23.7905 7.84526 23.7873 7.84671C23.7862 7.84657 23.7851 7.84681 23.7842 7.84742C23.7842 7.84771 23.7842 7.84819 23.7842 7.84843C23.7712 7.85525 23.758 7.86161 23.7446 7.8678C23.7367 7.8707 23.7293 7.87339 23.7226 7.87634L23.7207 7.87828C23.7096 7.88312 23.6984 7.88756 23.6869 7.89172C23.6857 7.89201 23.6846 7.89244 23.6835 7.89294C23.6605 7.90078 23.6413 7.90663 23.6231 7.912C23.6042 7.91683 23.585 7.92059 23.5656 7.92326C23.5495 7.92437 23.5334 7.92633 23.5175 7.92912V7.92959C23.5148 7.92959 23.5122 7.93007 23.5093 7.93056L23.5064 7.93103C23.5048 7.93148 23.5031 7.9318 23.5014 7.932C23.5008 7.93205 23.5002 7.93222 23.4997 7.93249C23.4993 7.93201 23.4985 7.932 23.4975 7.93176C23.4993 7.93104 23.5004 7.93032 23.5004 7.92959C23.5014 7.93273 23.5206 7.92713 23.5273 7.92617C23.5294 7.92617 23.5316 7.92543 23.5335 7.92543C23.5436 7.92495 23.5488 7.92544 23.5481 7.92225C23.5581 7.92307 23.5682 7.92096 23.5771 7.91615C23.5786 7.91561 23.5803 7.91561 23.5818 7.91615C23.5838 7.91649 23.5858 7.91623 23.5876 7.91542C23.5893 7.91417 23.5898 7.91319 23.5883 7.91271C23.5844 7.91192 23.5804 7.9121 23.5766 7.9132L23.5737 7.91391L23.574 7.91344C23.56 7.91362 23.5461 7.91651 23.5332 7.92199C23.532 7.92199 23.5308 7.922 23.5294 7.92248C23.526 7.92176 23.5196 7.92249 23.5177 7.92128C23.5129 7.92611 23.5112 7.9232 23.503 7.92397C23.4888 7.92518 23.4707 7.92911 23.4539 7.92959C23.4523 7.92879 23.4505 7.92837 23.4486 7.92834C23.4486 7.92834 23.4491 7.92833 23.4491 7.92784C23.4472 7.92784 23.4455 7.92786 23.4439 7.92834C23.3911 7.92911 23.3382 7.92928 23.2852 7.92886C23.2852 7.92886 23.2855 7.92834 23.2852 7.9281C23.2829 7.92774 23.2806 7.92789 23.2785 7.92858C23.2723 7.92858 23.2658 7.92859 23.2595 7.9281C23.1162 7.9054 22.9764 7.86377 22.8437 7.80426C22.8415 7.80328 22.8391 7.803 22.8367 7.80348C22.8344 7.80395 22.8322 7.80514 22.8306 7.8069C22.8289 7.80866 22.8278 7.81089 22.8274 7.8133C22.827 7.81571 22.8274 7.8182 22.8284 7.82041H22.8286C22.8297 7.82237 22.8314 7.8239 22.8334 7.8248C22.9342 7.86891 23.0386 7.90404 23.1454 7.92983H23.1444C23.1431 7.92977 23.1419 7.92962 23.1406 7.92935C23.1349 7.92863 23.1291 7.92713 23.1234 7.92617C23.1238 7.92617 23.1238 7.92615 23.1245 7.92567C23.1223 7.92565 23.1201 7.9255 23.1178 7.9252C23.0888 7.91983 23.0606 7.91368 23.032 7.90662C23.032 7.90637 23.0316 7.90588 23.0311 7.90588L23.0301 7.90541C23.0282 7.90517 23.0268 7.90518 23.0254 7.90494H23.0246C22.9995 7.89856 22.9748 7.89123 22.9499 7.88364C22.9484 7.88293 22.9468 7.88238 22.9451 7.88196C22.9226 7.87365 22.8994 7.86435 22.8768 7.85434C22.8721 7.85042 22.8642 7.84628 22.861 7.84749C22.8606 7.84749 22.8603 7.847 22.8603 7.84676V7.84603L22.8601 7.84555L22.8596 7.84506C22.8582 7.84408 22.8568 7.84316 22.8553 7.84234H22.8546C22.8537 7.84198 22.8528 7.84183 22.8519 7.84187C22.8518 7.84205 22.8518 7.84227 22.8518 7.84248C22.8518 7.8427 22.8518 7.84289 22.8519 7.84307C22.8399 7.83824 22.8287 7.83282 22.8172 7.82721L22.8069 7.82208C22.8077 7.82272 22.8086 7.82329 22.8095 7.82378C22.8155 7.8277 22.8215 7.83137 22.8277 7.83505C22.8325 7.83771 22.8372 7.84065 22.842 7.84331C22.8477 7.84674 22.8534 7.84994 22.8595 7.85337C22.8896 7.8702 22.9208 7.88583 22.9524 7.9C22.9619 7.9044 22.9721 7.90878 22.9819 7.91294C22.9826 7.91294 22.9833 7.91367 22.9843 7.91391C22.992 7.9171 22.9996 7.92031 23.0076 7.92321C23.0413 7.93666 23.0761 7.94841 23.1111 7.95866C23.1175 7.96059 23.124 7.96232 23.1305 7.96402C23.1473 7.96885 23.1643 7.97283 23.1813 7.97651C23.1885 7.9782 23.1955 7.97987 23.2029 7.98133C23.2242 7.98573 23.2456 7.98937 23.2668 7.99257C23.2673 7.99268 23.2678 7.99268 23.2683 7.99257C23.2772 7.99402 23.2858 7.99502 23.2946 7.99622L23.3006 7.99696H23.3011C23.331 7.99578 23.3606 7.99029 23.3891 7.98062C23.4233 7.97947 23.4572 7.9742 23.4902 7.96494C23.5284 7.96243 23.5664 7.95778 23.6041 7.95101C23.64 7.94491 23.6666 7.92201 23.7011 7.91514C23.7027 7.91486 23.7042 7.91417 23.7055 7.91313C23.7067 7.9121 23.7077 7.91076 23.7083 7.90924C23.7551 7.89036 23.8005 7.86833 23.8444 7.84331C23.8461 7.84242 23.8475 7.8411 23.8484 7.83946C23.8494 7.83783 23.8499 7.83596 23.8499 7.83405C23.8499 7.83214 23.8494 7.83025 23.8484 7.82862C23.8474 7.82699 23.846 7.82568 23.8444 7.8248H23.8442Z" fill="black"/>
</svg>
